<svg id="Layer_1" data-name="Layer 1" xmlns="http://www.w3.org/2000/svg" viewBox="0 0 1044.28 276"><defs><style>.cls-1{fill:#fff;}.cls-2{fill:#8dc63f;}.cls-3{fill:#f9e988;}.cls-4{fill:#8bc53f;}.cls-5{fill:#009345;}.cls-6{fill:#58595b;}</style></defs><g id="Coin_Gecko_Vector_Text" data-name="Coin Gecko Vector Text"><path class="cls-1" d="M431.66,108.39c-2.84-11.07-10-19.17-24-19.17-20.66,0-29.3,18.22-29.3,36.71s8.64,36.72,29.3,36.72c15,0,23.22-11.2,24.56-25.24h16.47c-1.35,23.08-17.68,39-41,39-28.89,0-46.17-22.95-46.17-50.49s17.22-50.53,46.11-50.53c21.73.13,38.87,12.15,40.9,32.94Z" transform="translate(0 0)"/><path class="cls-1" d="M458.66,139.11c0-21.33,12.82-36.71,35.23-36.71s35.23,15.38,35.23,36.71S516.3,176,493.89,176,458.66,160.58,458.66,139.11Zm55.07,0c0-12-6.07-24.56-19.84-24.56s-19.84,12.55-19.84,24.56,6.07,24.71,19.84,24.71S513.73,151.26,513.73,139.11Z" transform="translate(0 0)"/><path class="cls-1" d="M542.35,77.69h15.39V92.27H542.35Zm0,26.6h15.39v69.79H542.35Z" transform="translate(0 0)"/><path class="cls-1" d="M574.48,104.29h14.58v10.26l.27.27a25,25,0,0,1,21.74-12.43c15.12,0,24.7,8.1,24.7,23.75v47.93H620.38V130.2c-.27-10.93-4.59-15.65-13.63-15.65-10.26,0-16.88,8.09-16.88,18.35v41.18H574.48Z" transform="translate(0 0)"/><path class="cls-1" d="M738.23,174.08h-10.8l-2.56-11.34c-9,10.26-17.28,13.63-29,13.63-28.87,0-46.19-23-46.19-50.49S667,75.39,695.85,75.39c21,0,38.74,11.2,41.3,32.94H720.68C719.06,95.64,708,89.16,695.85,89.16c-20.66,0-29.3,18.22-29.3,36.71s8.64,36.72,29.3,36.72c17.27.27,26.72-10.12,27-26.46H697.2V123.32h41Z" transform="translate(0 0)"/><path class="cls-1" d="M766.45,143.16c0,10.94,5.94,20.66,18.76,20.66,8.91,0,14.31-3.92,17-11.61H816.8C813.43,167.46,800.47,176,785.21,176c-21.86,0-34.15-15.26-34.15-36.72,0-19.85,13-36.85,33.75-36.85,22,0,35.5,19.84,32.94,40.76ZM802.36,133c-.54-9.72-7.16-18.49-17.55-18.49-10.67,0-17.95,8.09-18.36,18.49Z" transform="translate(0 0)"/><path class="cls-1" d="M876.61,127.64c-1.22-8.51-7.43-13.09-15.93-13.09-8,0-19.17,4.18-19.17,25.37,0,11.61,5.13,23.9,18.49,23.9,8.91,0,15.12-5.94,16.61-15.93H892C889.16,166,878,176,860,176c-21.87,0-33.88-15.53-33.88-36.05,0-21.06,11.48-37.52,34.42-37.52,16.2,0,30,8.1,31.46,25.24Z" transform="translate(0 0)"/><path class="cls-1" d="M905,77.69h15.39V132.5l27.81-28.21h18.9l-26.73,25.64,29.29,44.15h-18.8l-21.33-33.89-9.18,8.91v25H905Z" transform="translate(0 0)"/><path class="cls-1" d="M973.81,139.11c0-21.33,12.82-36.71,35.23-36.71s35.24,15.38,35.24,36.71S1031.45,176,1009,176,973.81,160.58,973.81,139.11Zm55.08,0c0-12-6.08-24.56-19.85-24.56S989.2,127.1,989.2,139.11s6.07,24.71,19.84,24.71S1028.89,151.26,1028.89,139.11Z" transform="translate(0 0)"/></g><g id="Coin_Gecko_AI" data-name="Coin Gecko AI"><path class="cls-2" d="M276,137.39A138,138,0,1,1,137.39,0h0A138,138,0,0,1,276,137.39Z" transform="translate(0 0)"/><path class="cls-3" d="M265.65,137.44a127.63,127.63,0,1,1-128.21-127h0A127.65,127.65,0,0,1,265.65,137.44Z" transform="translate(0 0)"/><path class="cls-1" d="M140.35,18.66a70.18,70.18,0,0,1,24.53,0,74.75,74.75,0,0,1,23.43,7.85c7.28,4,13.57,9.43,19.83,14.52s12.49,10.3,18.42,16a93.32,93.32,0,0,1,15.71,19,108.28,108.28,0,0,1,11,22.17c5.33,15.66,7.18,32.53,4.52,48.62H257c-2.67-15.95-6.29-31.15-12-45.61A177.51,177.51,0,0,0,235.56,80,209.1,209.1,0,0,0,223.14,60a72.31,72.31,0,0,0-16.64-16.8c-6.48-4.62-13.93-7.61-21.14-10.45S171,27,163.48,24.84s-15.16-3.78-23.14-5.35Z" transform="translate(0 0)"/><path class="cls-4" d="M202.74,92.39c-9.26-2.68-18.86-6.48-28.58-10.32-.56-2.44-2.72-5.48-7.09-9.19-6.35-5.51-18.28-5.37-28.59-2.93-11.38-2.68-22.62-3.63-33.41-1C16.82,93.26,66.86,152.57,34.46,212.19c4.61,9.78,54.3,66.84,126.2,51.53,0,0-24.59-59.09,30.9-87.45C236.57,153.18,269.09,110.46,202.74,92.39Z" transform="translate(0 0)"/><path class="cls-1" d="M213.64,131.2a5.35,5.35,0,1,1-5.38-5.32A5.36,5.36,0,0,1,213.64,131.2Z" transform="translate(0 0)"/><path class="cls-5" d="M138.48,69.91c6.43.46,29.68,8,35.68,12.12-5-14.5-21.83-16.43-35.68-12.12Z" transform="translate(0 0)"/><path class="cls-1" d="M144.6,106.58a24.68,24.68,0,1,1-24.69-24.67h0a24.68,24.68,0,0,1,24.68,24.66Z" transform="translate(0 0)"/><path class="cls-6" d="M137.28,106.8a17.36,17.36,0,1,1-17.36-17.36h0A17.36,17.36,0,0,1,137.28,106.8Z" transform="translate(0 0)"/><path class="cls-4" d="M233.63,142.08c-20,14.09-42.74,24.78-75,24.78-15.1,0-18.16-16-28.14-8.18-5.15,4.06-23.31,13.14-37.72,12.45S55,162,48.49,131.23C45.91,162,44.59,184.65,33,210.62c23,36.83,77.84,65.24,127.62,53C155.31,226.27,188,189.69,206.34,171c7-7.09,20.3-18.66,27.29-28.91Z" transform="translate(0 0)"/><path class="cls-6" d="M232.85,143c-6.21,5.66-13.6,9.85-21.12,13.55a134.9,134.9,0,0,1-23.7,8.63c-8.16,2.11-16.67,3.7-25.29,2.92s-17.43-3.71-23.14-10.17l.27-.31c7,4.54,15.08,6.14,23.12,6.37a108.27,108.27,0,0,0,24.3-2,132.71,132.71,0,0,0,23.61-7.3c7.63-3.15,15.18-6.8,21.68-12Z" transform="translate(0 0)"/></g></svg>