<svg id="Layer_1" data-name="Layer 1" xmlns="http://www.w3.org/2000/svg" xmlns:xlink="http://www.w3.org/1999/xlink" viewBox="0 0 93.04 24"><defs><style>.cls-1{fill:none;}.cls-2{clip-path:url(#clip-path);}.cls-3{isolation:isolate;}.cls-4{fill:#fff;}</style><clipPath id="clip-path"><rect class="cls-1" y="3" width="93.04" height="18"/></clipPath></defs><g class="cls-2"><g class="cls-3"><g class="cls-2"><path class="cls-4" d="M15.49,15.27a2.25,2.25,0,0,1-2.09-2.38,2.25,2.25,0,0,1,2.09-2.38,2.23,2.23,0,0,1,2.09,2.38A2.27,2.27,0,0,1,15.49,15.27Zm-7.72,0a2.26,2.26,0,0,1-2.1-2.38,2.26,2.26,0,0,1,2.1-2.38,2.22,2.22,0,0,1,2.08,2.38A2.25,2.25,0,0,1,7.77,15.27ZM19.7,4.51A18.75,18.75,0,0,0,14.9,3c-.22.42-.43.84-.61,1.28A17.57,17.57,0,0,0,9,4.28,12.56,12.56,0,0,0,8.35,3a19.15,19.15,0,0,0-4.8,1.51A20.09,20.09,0,0,0,.1,18,19.19,19.19,0,0,0,6,21a15.28,15.28,0,0,0,1.28-2.08,12.71,12.71,0,0,1-2-1l.49-.38a13.62,13.62,0,0,0,11.76,0c.16.13.32.26.49.38a12.61,12.61,0,0,1-2,1A14.24,14.24,0,0,0,17.29,21a19.55,19.55,0,0,0,5.89-3A20.14,20.14,0,0,0,19.7,4.51Z"/><path class="cls-4" d="M35.83,14.43a2.65,2.65,0,0,0,1.87-.62,2.23,2.23,0,0,0,.65-1.71,2.09,2.09,0,0,0-.58-1.59A2.35,2.35,0,0,0,36,9.92H34.45v4.5ZM31.25,7.59h5a7.31,7.31,0,0,1,3.06.58,4.16,4.16,0,0,1,1.87,1.6,4.49,4.49,0,0,1,.62,2.35,4.27,4.27,0,0,1-2.62,4,7.9,7.9,0,0,1-3.29.62H31.25Z"/><path class="cls-4" d="M49.26,16.73a6.74,6.74,0,0,1-1.85-.8V13.76a4.91,4.91,0,0,0,1.69.82,6.74,6.74,0,0,0,2,.32,1.62,1.62,0,0,0,.69-.12q.24-.12.24-.3a.41.41,0,0,0-.12-.32,1.2,1.2,0,0,0-.5-.23l-1.54-.35A4,4,0,0,1,48,12.73a1.94,1.94,0,0,1-.55-1.46A1.92,1.92,0,0,1,48,10a3.09,3.09,0,0,1,1.39-.85,6.22,6.22,0,0,1,2.1-.31A7.48,7.48,0,0,1,53.39,9a5.23,5.23,0,0,1,1.49.6v2.05a6,6,0,0,0-1.39-.58,6.33,6.33,0,0,0-1.62-.22c-.8,0-1.21.14-1.21.43a.32.32,0,0,0,.19.3,3.22,3.22,0,0,0,.69.2l1.28.24a3.6,3.6,0,0,1,1.85.78,2.06,2.06,0,0,1,.62,1.64,2.18,2.18,0,0,1-1,1.89,5,5,0,0,1-2.88.7A8.53,8.53,0,0,1,49.26,16.73Z"/><path class="cls-4" d="M58.33,16.46A3.89,3.89,0,0,1,56.67,15a4.13,4.13,0,0,1-.56-2.14,3.81,3.81,0,0,1,2.27-3.56A6.26,6.26,0,0,1,61,8.73a5.78,5.78,0,0,1,3.19.83V12a4,4,0,0,0-1-.51,3.93,3.93,0,0,0-1.28-.19,3.25,3.25,0,0,0-1.86.42A1.37,1.37,0,0,0,60,14a3.39,3.39,0,0,0,1.92.45,4.67,4.67,0,0,0,1.28-.19,4.84,4.84,0,0,0,1.07-.47v2.32A6.15,6.15,0,0,1,61,17,6.06,6.06,0,0,1,58.33,16.46Z"/><path class="cls-4" d="M71.33,14.14a1.69,1.69,0,0,0,.47-1.28,1.66,1.66,0,0,0-.47-1.23,1.73,1.73,0,0,0-1.28-.47,1.79,1.79,0,0,0-1.28.47,1.69,1.69,0,0,0-.47,1.25,1.81,1.81,0,0,0,3,1.28Zm-3.9,2.32A4,4,0,0,1,65.74,15a4,4,0,0,1-.59-2.14,3.82,3.82,0,0,1,.59-2.1,3.92,3.92,0,0,1,1.68-1.44,6.82,6.82,0,0,1,5.25,0,3.72,3.72,0,0,1,2.25,3.54A4,4,0,0,1,74.35,15a3.9,3.9,0,0,1-1.69,1.5,6.44,6.44,0,0,1-5.23,0Z"/><path class="cls-4" d="M82.61,9.24v2.82a2.28,2.28,0,0,0-1.28-.32,1.94,1.94,0,0,0-1.57.63,2.9,2.9,0,0,0-.55,2v2.41H76.07V9.1h3.07v2.44a4.07,4.07,0,0,1,.83-2,1.87,1.87,0,0,1,1.47-.63A2.09,2.09,0,0,1,82.61,9.24Z"/><path class="cls-4" d="M89.43,14.11a1.65,1.65,0,0,0,.48-1.24,1.58,1.58,0,0,0-.47-1.19,2,2,0,0,0-2.53,0,1.78,1.78,0,0,0,0,2.43,1.7,1.7,0,0,0,1.25.47A1.75,1.75,0,0,0,89.43,14.11ZM93,7.33v9.4H89.9V15a3,3,0,0,1-1.21,1.47,3.81,3.81,0,0,1-2,.52,3.33,3.33,0,0,1-1.86-.53A3.44,3.44,0,0,1,83.63,15a5,5,0,0,1-.43-2.09,4.75,4.75,0,0,1,.46-2.16,3.5,3.5,0,0,1,3.26-2,2.91,2.91,0,0,1,3,2V7.33Z"/><path class="cls-4" d="M44.42,9.91A1.51,1.51,0,0,0,46,8.48a1.57,1.57,0,0,0-3.13,0A1.51,1.51,0,0,0,44.42,9.91Z"/><path class="cls-4" d="M42.86,10.9a4,4,0,0,0,3.14,0v5.89H42.86Z"/></g></g></g></svg>