<svg id="Layer_1" data-name="Layer 1" xmlns="http://www.w3.org/2000/svg" xmlns:xlink="http://www.w3.org/1999/xlink" viewBox="0 0 76.63 24"><defs><style>.cls-1{fill:none;}.cls-2{clip-path:url(#clip-path);}.cls-3{isolation:isolate;}.cls-4,.cls-5{fill:#fff;}.cls-5{fill-rule:evenodd;}</style><clipPath id="clip-path"><rect class="cls-1" y="1" width="76.63" height="22"/></clipPath></defs><g class="cls-2"><g class="cls-3"><g class="cls-2"><path class="cls-4" d="M35.71,11H31.45a.2.2,0,0,0-.2.19v2.08h0a.2.2,0,0,0,.2.2h1.66v2.58a4.79,4.79,0,0,1-1.41.13c-1.24,0-2.93-.44-2.93-4.18s1.79-4.24,3.45-4.24a6.64,6.64,0,0,1,2.46.38h0a.2.2,0,0,0,.2-.17V8l.47-2a.24.24,0,0,0-.07-.16,6.91,6.91,0,0,0-3.61-.66c-2.84,0-5.75,1.22-5.75,7s3.33,6.69,6.15,6.69a6.91,6.91,0,0,0,3.74-1,.19.19,0,0,0,.07-.15v-6.5A.2.2,0,0,0,35.71,11Z"/><path class="cls-4" d="M57.66,5.83a.19.19,0,0,0-.19-.2H55.06a.21.21,0,0,0-.2.19v4.65H51.12V5.83a.19.19,0,0,0-.19-.2H48.51a.2.2,0,0,0-.2.19V18.37a.22.22,0,0,0,.2.21H50.9a.22.22,0,0,0,.2-.21V13h3.74v5.36a.22.22,0,0,0,.2.21h2.4a.21.21,0,0,0,.21-.21Z"/><path class="cls-4" d="M40.23,7.47A1.55,1.55,0,1,0,38.68,9h0a1.55,1.55,0,0,0,1.54-1.54Z"/><path class="cls-4" d="M40.05,15.73V9.94a.22.22,0,0,0-.2-.21H37.47a.23.23,0,0,0-.21.23v8.3c0,.24.16.32.35.32h2.15c.24,0,.3-.12.3-.32Z"/><path class="cls-4" d="M66.77,9.75H64.39a.2.2,0,0,0-.2.2v6.16a2.78,2.78,0,0,1-1.46.44c-.85,0-1.08-.39-1.08-1.23V10a.2.2,0,0,0-.2-.2H59a.2.2,0,0,0-.19.2v5.77c0,2.5,1.38,3.11,3.3,3.11A5.53,5.53,0,0,0,65,18a2.36,2.36,0,0,0,.09.52.21.21,0,0,0,.18.1h1.53a.2.2,0,0,0,.2-.19h0V10A.21.21,0,0,0,66.77,9.75Z"/><path class="cls-4" d="M72.34,16.53a2.84,2.84,0,0,1-1.39-.4V12.18a3.36,3.36,0,0,1,1.23-.4c.86-.07,1.69.19,1.69,2.26s-.38,2.53-1.53,2.5Zm.94-7.07a4.48,4.48,0,0,0-2.26.61V5.83a.2.2,0,0,0-.2-.2H68.41a.2.2,0,0,0-.19.2V18.37a.22.22,0,0,0,.19.21h1.7a.23.23,0,0,0,.17-.11,3.66,3.66,0,0,0,.1-.56,4.36,4.36,0,0,0,2.82.93c2.19,0,3.44-1.13,3.44-5S74.64,9.46,73.28,9.46Z"/><path class="cls-4" d="M47,9.73h-1.8V7.36c0-.09,0-.14-.16-.14H42.55c-.1,0-.14,0-.14.13V9.81l-1.31.32a.21.21,0,0,0-.14.19v1.55a.21.21,0,0,0,.19.2h1.26v3.71c0,2.76,1.93,3,3.24,3a5.71,5.71,0,0,0,1.42-.24.18.18,0,0,0,.12-.18V16.7a.2.2,0,0,0-.2-.2c-.11,0-.37,0-.65,0-.88,0-1.18-.41-1.18-.94V12.07H47a.21.21,0,0,0,.19-.21V9.94A.21.21,0,0,0,47,9.73Z"/><path class="cls-5" d="M11.28,1h0A11.28,11.28,0,0,0,7.72,23c.56.1.76-.25.76-.56V20.52C5.34,21.2,4.67,19,4.67,19a3,3,0,0,0-1.25-1.64c-1-.69.09-.69.09-.69a2.36,2.36,0,0,1,1.72,1.16,2.39,2.39,0,0,0,3.28.94,2.38,2.38,0,0,1,.69-1.5C6.7,17,4.07,16,4.07,11.72a4.39,4.39,0,0,1,1.15-3,4.12,4.12,0,0,1,.12-3c.41-.94.94-.3,3.1,1.16a10.59,10.59,0,0,1,5.64,0c2.15-1.46,3.1-1.16,3.1-1.16a4.12,4.12,0,0,1,.13,3,4.31,4.31,0,0,1,1.16,3.05c0,4.33-2.63,5.28-5.15,5.54a2.6,2.6,0,0,1,.78,2V22.4c0,.37.21.65.78.57a11.28,11.28,0,0,0-3.6-22Z"/></g></g></g></svg>