<svg xmlns="http://www.w3.org/2000/svg" viewBox="0 0 56.19 55"><defs><style>.cls-1{fill:#fff;fill-rule:evenodd;}</style></defs><g id="Layer_2" data-name="Layer 2"><g id="Layer_1-2" data-name="Layer 1"><g id="Layer_2-2" data-name="Layer 2"><g id="Layer_1-2-2" data-name="Layer 1-2"><path class="cls-1" d="M28.22,0a28.19,28.19,0,0,0-8.91,55c1.42.26,1.92-.62,1.92-1.36v-4.8C13.36,50.51,11.69,45,11.69,45a7.58,7.58,0,0,0-3.13-4.14c-2.54-1.73.21-1.73.21-1.73A5.94,5.94,0,0,1,13.08,42a6,6,0,0,0,8.18,2.37h0A6,6,0,0,1,23,40.62c-6.26-.71-12.84-3.13-12.84-13.84a10.93,10.93,0,0,1,2.89-7.57,10.28,10.28,0,0,1,.28-7.46s2.37-.76,7.75,2.89a26.68,26.68,0,0,1,14.13,0C40.6,11,43,11.75,43,11.75a10.25,10.25,0,0,1,.35,7.41,10.92,10.92,0,0,1,2.89,7.56c0,10.84-6.59,13.21-12.88,13.85a6.62,6.62,0,0,1,1.92,5.19V53.5c0,.92.51,1.63,1.94,1.35A28.19,28.19,0,0,0,28.22,0Z"/></g></g></g></g></svg>