<svg id="Layer_1" data-name="Layer 1" xmlns="http://www.w3.org/2000/svg" xmlns:xlink="http://www.w3.org/1999/xlink" viewBox="0 0 97.85 24"><defs><style>.cls-1{fill:none;}.cls-2{isolation:isolate;}.cls-3{clip-path:url(#clip-path);}.cls-4{fill:#fff;}</style><clipPath id="clip-path"><rect class="cls-1" y="1" width="97.85" height="22"/></clipPath></defs><g class="cls-2"><g class="cls-3"><path class="cls-4" d="M32.78,3.72c0,1.92,0,5,0,6.09s0,3.23,0,4.5a5.33,5.33,0,0,1-.85,2.89c-.47.68-1.32,1.12-1.53.89s.09-.56.21-1.12a15.13,15.13,0,0,0,.21-3.15c0-1.45.05-8.3.05-9.06s0-.68-.17-.52A6.05,6.05,0,0,0,29,9c.17,1.83.9,1.57.64,2s-2.85-.76-2.21-3.49A5.78,5.78,0,0,1,30.93,3h.38C31.93,3,32.78,3.38,32.78,3.72Zm49.4,8.36a5.71,5.71,0,0,1-.56,2.34,1.43,1.43,0,0,1-1.13.94c-.38,0-.76-.3-1-1.07a8.29,8.29,0,0,1-.08-3.4c.17-1.19.68-2.13,1.57-2s1.28,1.19,1.13,3.23ZM67.75,18.34c0,1.66-.29,3.15-.84,3.57a1.26,1.26,0,0,1-.77.26c-.56,0-1.06-.47-.89-1.36a8.55,8.55,0,0,1,2.5-3.53Zm-.25-6.26A7.16,7.16,0,0,1,67,14.42a1.52,1.52,0,0,1-1.12.94c-.43,0-.77-.3-1-1.07A7,7,0,0,1,64.8,11c.21-1.13.68-2.17,1.57-2.17s1.26,1,1.11,3.26Zm-8.34,0a6.47,6.47,0,0,1-.56,2.34,1.52,1.52,0,0,1-1.13.94c-.42,0-.76-.34-1-1.07a8.67,8.67,0,0,1-.09-3.44c.22-1.2.77-2.09,1.58-2s1.26,1.21,1.17,3.26Zm38.38,1.13c-.22,0-.34.21-.38.6-.3,1.23-.6,1.53-.94,1.53s-.81-.64-.89-1.87a32.11,32.11,0,0,1,0-4.6c0-.38-.09-.72-1.13-1.12s-1-.38-1.36.38A21,21,0,0,0,91.6,12.6c-.25,1.53,0,0-.08,0S91.4,11,91.35,8.94a1.11,1.11,0,0,0-.51-1.06c-.3-.18-1.19-.51-1.49-.13A8.66,8.66,0,0,0,88.43,10L88,11.36V8.28a.48.48,0,0,0-.26-.43,5.43,5.43,0,0,0-1.13-.25c-.3,0-.38.17-.38.42s0,2.93,0,4.94v.29c-.17.9-.72,2.17-1.32,2.17S84,14.91,84,12.49c0-1.41,0-2,0-3a7.12,7.12,0,0,1,0-1.13,1.84,1.84,0,0,0-.76-.56l-.7,0a.48.48,0,0,0-.39.43v.34a2.16,2.16,0,0,0-1.87-1.08,2.19,2.19,0,0,0-1.11.31,1.91,1.91,0,0,0-.72.72,6.25,6.25,0,0,0-1,3,8,8,0,0,0,.08,2.68c-.21.9-.59,1.28-1,1.28s-1.06-1-1-2.77a20.25,20.25,0,0,1,.51-3.1,1,1,0,0,0-.17-1,1.29,1.29,0,0,0-1.23-.17L73,8.64l.09-.38c.13-1.28-1.24-1.19-1.69-.76a1.57,1.57,0,0,0-.51,1,1.26,1.26,0,0,0,.59,1.2A13,13,0,0,1,70.13,13c-.3.51-.51.85-.81,1.28V9.47c0-.6,0-1,0-1.13A.59.59,0,0,0,69,7.92l-.84-.17c-.39,0-.6.21-.6.43v.34a2.15,2.15,0,0,0-1.87-1.08,2.12,2.12,0,0,0-1.1.31,1.87,1.87,0,0,0-.73.72,6.25,6.25,0,0,0-1,3,8.45,8.45,0,0,0,0,2.51c-.13.72-.56,1.45-1,1.45s-.94-.51-.94-2.94c0-1.4.05-2,.09-3V8.33c0-.35-.51-.51-.77-.56l-.68,0a.6.6,0,0,0-.38.38v.39a2.14,2.14,0,0,0-3.7,0,5.34,5.34,0,0,0-1,2.93c0,.47-.09.89-.09,1.28-.17,1.13-1,2.46-1.68,2.46s-.74-.79-.74-2.38.12-5.24.12-5.53h2.39c.3,0,.56-1,.3-1.13L53.29,6H52.1s.08-2,.08-2.25-.21-.3-.33-.33a3.14,3.14,0,0,0-.94-.26h-.3c-.29,0-.42.13-.42.42s-.14,2.34-.14,2.34l-1.87-.09c-.34,0-.68,1.4-.22,1.4l2,.09s0,3.11,0,4.09v.17a4.55,4.55,0,0,1-1.49,2.63,2.63,2.63,0,0,0-1.12-2.72l-1.76-1.32a4.63,4.63,0,0,0,.81-1.28c.26-.59.3-1.27-.38-1.44a2,2,0,0,0-2.25,1.44A1.7,1.7,0,0,0,44,10.56l.08.13c-.26.56-.56,1.06-.85,1.57-.81,1.41-1.4,2.51-1.88,2.51S41,13.65,41,12.6s0-2.25.13-3.61a1,1,0,0,0-.6-1,2.94,2.94,0,0,0-1-.42c-.47,0-1.69.08-2.89,3.48-.13.43-.43,1.23-.43,1.23V8.14a.22.22,0,0,0-.17-.21,2.37,2.37,0,0,0-1.19-.33c-.17,0-.3.08-.34.25v6.51a4.5,4.5,0,0,0,.09,1.32,2,2,0,0,0,.21.56.64.64,0,0,0,.38.26c.17,0,1.12.17,1.15-.21a18,18,0,0,1,.57-2.64,10.55,10.55,0,0,1,2.24-4.47c.47-.46.17-.09.17,0s-.08,2.09-.12,3.32c-.13,3.37.47,4,1.36,4s1.58-.68,2.59-2.34,1.24-2.08,1.69-2.81l1,.89a2.23,2.23,0,0,1,.89,2.17c-.17.68-.64,1.06-1.53.56l-.64-.46a.32.32,0,0,0-.46,0,1.48,1.48,0,0,0-.65.93c-.12.38.26.6.68.77a6.85,6.85,0,0,0,1.54.34c1.87,0,3.32-.9,4.34-3.38.21,2.14,1,3.32,2.34,3.32s1.83-1.19,2.2-2.34a6.64,6.64,0,0,0,.51,1.23c1,1.69,3.06,1.32,4.08-.08a1.73,1.73,0,0,0,.39-.6,1.91,1.91,0,0,0,1.82,1.79,2,2,0,0,0,1.88-1.45,1.48,1.48,0,0,0,.21.34c1,1.69,3.07,1.32,4.08-.08l.13-.21V16l-.93.85c-1.57,1.45-2.77,2.55-2.9,3.83S65.06,22.91,66,23a2.84,2.84,0,0,0,2.51-1.31,7.1,7.1,0,0,0,.81-3.79c0-.64,0-1.4,0-2.25a16.38,16.38,0,0,0,1.75-2.38,17.85,17.85,0,0,0,1.68-3.53h1.2c.21-.05.25,0,.21.17A10.29,10.29,0,0,0,74,14.79a2.43,2.43,0,0,0,2.13,1.74,2.1,2.1,0,0,0,1.78-1.36l.18.26c1,1.69,3.06,1.32,4.08-.08l.34-.6a2,2,0,0,0,1.92,1.78c.63,0,1.23-.25,1.74-1.4a5.45,5.45,0,0,0,.08,1.07l.35.21a3.15,3.15,0,0,0,1.4.08c.17,0,.29-.17.29-.46a21.13,21.13,0,0,1,.26-3.28,10,10,0,0,1,1-2.75c.13-.17.21-.21.21,0s0,1.57.22,3.15a8.58,8.58,0,0,0,.38,2.08,1.18,1.18,0,0,0,1.12.64c.26,0,.73,0,.69-.47a10.84,10.84,0,0,1,.42-3.1,13.51,13.51,0,0,1,.9-2.47c0-.17.08,0,.08,0a22.2,22.2,0,0,0,.17,4.68,2.81,2.81,0,0,0,2.13,2.08c.47,0,1.69-.68,1.91-2.51,0-.47,0-.81-.29-.81Z"/><path class="cls-4" d="M15.75,7A1.23,1.23,0,1,1,17,5.79,1.24,1.24,0,0,1,15.75,7Zm-5.48,9.53a5.28,5.28,0,1,1,5.28-5.28A5.3,5.3,0,0,1,10.27,16.55ZM20.49,7A7.65,7.65,0,0,0,20,4.54a5.27,5.27,0,0,0-3-3,7.94,7.94,0,0,0-2.5-.5C13.42,1,13.06,1,10.27,1S7.14,1,6,1.06a7.94,7.94,0,0,0-2.5.5A4.91,4.91,0,0,0,1.73,2.73,4.91,4.91,0,0,0,.56,4.54,7.65,7.65,0,0,0,.08,7C0,8.14,0,8.49,0,11.27s0,3.15.06,4.24A7.94,7.94,0,0,0,.56,18a5.27,5.27,0,0,0,3,3,7.65,7.65,0,0,0,2.5.48c1.1.05,1.45.06,4.23.06s3.15,0,4.24-.06A7.65,7.65,0,0,0,17,21a5.33,5.33,0,0,0,3-3,7.65,7.65,0,0,0,.48-2.5c.05-1.09.06-1.45.06-4.24S20.54,8.14,20.49,7Z"/><circle class="cls-4" cx="10.27" cy="11.27" r="3.42"/></g></g></svg>