<svg xmlns="http://www.w3.org/2000/svg" viewBox="0 0 48.3 48.3"><defs><style>.cls-1{fill:none;}.cls-2{fill:#fff;}</style></defs><g id="Layer_2" data-name="Layer 2"><g id="Layer_1-2" data-name="Layer 1"><path class="cls-1" d="M24.15,11.75a12.4,12.4,0,1,0,12.4,12.4A12.4,12.4,0,0,0,24.15,11.75Zm0,20.45a8.05,8.05,0,1,1,8.05-8.05A8,8,0,0,1,24.15,32.2Z"/><path class="cls-2" d="M48.15,14.19A17.48,17.48,0,0,0,47,8.33a11.77,11.77,0,0,0-2.78-4.28A11.77,11.77,0,0,0,40,1.27,17.48,17.48,0,0,0,34.11.15C31.53,0,30.71,0,24.15,0s-7.38,0-10,.15A17.48,17.48,0,0,0,8.33,1.27,11.77,11.77,0,0,0,4.05,4.05,11.77,11.77,0,0,0,1.27,8.33,17.48,17.48,0,0,0,.15,14.19C0,16.77,0,17.59,0,24.15s0,7.38.15,10A17.48,17.48,0,0,0,1.27,40a11.77,11.77,0,0,0,2.78,4.28A11.77,11.77,0,0,0,8.33,47a17.48,17.48,0,0,0,5.86,1.12c2.58.12,3.4.15,10,.15s7.38,0,10-.15A17.48,17.48,0,0,0,40,47,12.33,12.33,0,0,0,47,40a17.48,17.48,0,0,0,1.12-5.86c.12-2.58.15-3.4.15-10S48.27,16.77,48.15,14.19Zm-24,22.36a12.4,12.4,0,1,1,12.4-12.4A12.4,12.4,0,0,1,24.15,36.55ZM37,14.16a2.9,2.9,0,1,1,2.9-2.9A2.9,2.9,0,0,1,37,14.16Z"/><circle class="cls-2" cx="24.15" cy="24.15" r="8.05" transform="translate(-3.56 4.18) rotate(-9.22)"/></g></g></svg>