<?xml version="1.0" encoding="UTF-8" standalone="no"?><!DOCTYPE svg PUBLIC "-//W3C//DTD SVG 1.1//EN" "http://www.w3.org/Graphics/SVG/1.1/DTD/svg11.dtd"><svg width="100%" height="100%" viewBox="0 0 2063 713" version="1.1" xmlns="http://www.w3.org/2000/svg" xmlns:xlink="http://www.w3.org/1999/xlink" xml:space="preserve" xmlns:serif="http://www.serif.com/" style="fill-rule:evenodd;clip-rule:evenodd;stroke-linejoin:round;stroke-miterlimit:2;"><g><path d="M2.734,205.027c0,-111.84 90.712,-202.504 202.611,-202.504l1649.71,0.001c111.9,-0 202.609,90.664 202.609,202.504l-0,300.972c-0,111.838 -90.709,202.504 -202.609,202.504l-1649.71,-0.004c-111.898,0 -202.61,-90.662 -202.61,-202.504l-0.001,-300.969Z" style="fill-rule:nonzero;"/><path d="M1839.25,81.668l-1618.84,-0c-77.644,-0.001 -140.587,62.91 -140.587,140.513l0,271.461c0,77.6 62.943,140.512 140.587,140.512l1618.84,0c77.642,0 140.588,-62.908 140.588,-140.512l-0,-271.46c-0,-77.604 -62.946,-140.514 -140.588,-140.514Zm-1618.84,-16.531c-86.779,-0 -157.127,70.311 -157.127,157.044l0,271.461c0.001,86.733 70.349,157.041 157.127,157.041l1618.84,0c86.779,0 157.125,-70.308 157.125,-157.041l0,-271.46c0,-86.734 -70.346,-157.045 -157.125,-157.045l-1618.84,-0Z" style="fill:#07f217;"/><g><path d="M481.838,326.128l48.404,0l34.516,-60.918l-92.25,-0l9.329,60.918Zm-11.229,-73.345l101.192,0l8.788,-15.508l-3.226,15.508l77.017,0l4.496,-21.582l-133.013,-0l-0.287,0.509l-0.075,-0.509l-132.74,-0l-4.497,21.582l76.745,0l3.225,-15.508l2.375,15.508Zm-75.259,-34.008l11.262,-54.053l109.052,-0l8,54.053l-128.314,-0Zm137.509,-0l128.605,-0l11.262,-54.053l-109.438,-0l-30.429,54.053Zm178.363,12.426l-9.696,21.582l79.867,0l8.108,-21.582l-78.279,-0Zm82.946,-12.426l-77.363,-0l24.279,-54.053l135.1,0l1.759,54.053l-77.755,-0l0.767,-18.075l-6.787,18.075Zm5.491,12.426l-0.916,21.582l80.304,0l-0.7,-21.582l-78.688,-0Zm131.046,-0l-4.5,21.582l78.463,0l0.537,-2.587l0.754,2.587l118.134,0l4.496,-21.582l-78.846,0l-0.025,0.111l-0.034,-0.111l-118.979,-0Zm121.646,-12.426l78.829,-0l11.259,-54.053l-78.725,0l-11.363,54.053Zm115.717,12.426l-4.496,21.582l163.042,0.001l4.45,-21.583l-162.996,0Zm88.775,-12.426l-86.188,-0l11.263,-54.053l171.062,0l-7.775,36.774l-84.754,-0l-3.608,17.279Zm125.633,12.426l-4.496,21.583l84.55,-0l0.084,-0.401l0.083,0.401l87.492,-0l-2.63,-13.123l5.534,-8.46l-170.617,0Zm229.758,0l-4.495,21.583l86.308,-0l4.496,-21.583l-86.309,0Zm88.896,-12.426l-86.308,0l11.262,-54.053l86.309,0l-11.263,54.053Zm-139.916,0l-86.859,0l34.329,-54.053l87.863,0l-35.333,54.053Zm-91.609,0l-84.537,0l11.258,-54.053l84.558,0l-11.279,54.053Zm-423.658,-0l-112.654,-0l11.262,-54.053l85.142,0l16.25,54.053Zm-483.825,107.353l12.658,-60.918l77.013,-0l-12.696,60.918l-76.975,0Zm106.458,0l27.363,-60.918l183.508,0l1.979,60.918l-89.221,0l2.138,-34.984l-24.688,-0l-12.05,34.984l-89.029,0Zm242.346,0l12.692,-60.918l78.471,0l-12.63,60.918l-78.533,0Zm116.438,0l-17.78,-60.918l111.921,0l-12.691,60.918l-81.45,0Zm120.925,0l12.695,-60.918l86.255,0l-5.059,24.145l84.75,0l-7.579,36.774l-171.062,-0.001Zm214.412,0.001l12.692,-60.919l84.55,0l-12.688,60.919l-84.554,-0Zm115.271,-0l-12.688,-60.919l87.388,0l12.187,60.919l-86.887,-0Zm114.483,-0l12.692,-60.919l86.308,0l-12.691,60.919l-86.309,-0Zm-1219.47,-0.001l12.692,-60.918l76.751,-0l-12.658,60.918l-76.785,0Zm293.214,248.472l-78.533,0l10.966,-52.646l78.479,0l-10.912,52.646Zm13.492,-65.071l-78.467,0l4.346,-20.866l197.887,-0l-4.35,20.866l-113.996,0l-3.17,-10.862l-2.25,10.862Zm9.05,12.425l15.362,52.646l81.446,0l10.971,-52.646l-107.779,0Zm147.258,0l-10.971,52.646l171.063,0l7.579,-36.775l-84.75,0l3.325,-15.871l-86.246,0Zm214.408,0l-10.971,52.646l84.559,0l10.962,-52.646l-84.55,0Zm87.138,-12.425l-84.55,0l4.35,-20.866l167.062,-0l4.175,20.866l-87.421,0l-1.808,-8.675l-1.808,8.675Zm6.204,12.425l10.962,52.646l86.888,0l-10.533,-52.646l-87.317,0Zm135.004,0l-3.142,15.075c-1.425,7.025 -1.75,12.988 -0.975,17.892c0.909,4.904 3.113,8.946 6.613,12.125c3.629,3.046 8.617,5.3 14.967,6.758c6.35,1.325 14.32,1.988 23.908,1.988l90.004,-0c10.238,-0 19.05,-0.663 26.433,-1.988c7.517,-1.458 13.542,-3.646 18.08,-6.558c9.329,-5.834 15.42,-15.904 18.27,-30.217l3.146,-15.075l-87.716,0l-1.15,5.534c-0.78,4.108 -2.271,7.091 -4.475,8.945c-2.071,1.725 -5.05,2.584 -8.942,2.584c-3.888,-0 -6.479,-0.859 -7.775,-2.584c-1.296,-1.854 -1.554,-4.837 -0.775,-8.946l1.15,-5.533l-87.621,0Zm112.175,-12.425l87.717,0l4.35,-20.867l-87.717,0l-4.35,20.867Zm-21.962,0l-87.621,0l4.35,-20.867l87.616,0l-4.345,20.867Zm-444.117,0l-86.263,0l4.346,-20.867l163.017,0l-3.25,15.767l-76.783,0l-1.067,5.1Zm-303.554,-96.337l-13.138,63.045l117.234,0l-18.955,-63.045l-85.141,0Zm184.75,63.045l-78.842,0l13.25,-63.045l78.725,0l-13.133,63.045Zm39.479,0l162.987,0l1.767,-8.579l-76.779,0l3.692,-17.691l84.754,-0l7.775,-36.775l-171.063,0l-13.133,63.045Zm442.762,0l87.613,0l3.321,-15.933c0.904,-4.108 2.396,-7.092 4.471,-8.946c2.07,-1.854 5.054,-2.783 8.941,-2.783c7.517,-0 10.367,3.908 8.554,11.729l-3.32,15.933l87.72,0l6.184,-29.65c1.296,-6.095 1.358,-11.329 0.191,-15.704c-1.033,-4.371 -3.495,-7.95 -7.383,-10.733c-3.758,-2.783 -9.008,-4.771 -15.746,-5.963c-6.608,-1.326 -14.837,-1.988 -24.687,-1.988l-90,-0c-18.275,-0 -32.204,2.716 -41.796,8.151c-9.458,5.433 -15.421,14.179 -17.883,26.237l-6.18,29.65Zm-142.9,0l86.688,0l41.212,-63.045l-87.862,0l-40.038,63.045Zm-85.454,0l84.534,0l13.158,-63.045l-84.558,0l-13.134,63.045Z" style="fill:#07f217;"/></g></g></svg>