<svg id="Layer_1" data-name="Layer 1" xmlns="http://www.w3.org/2000/svg" xmlns:xlink="http://www.w3.org/1999/xlink" viewBox="0 0 91.75 24"><defs><style>.cls-1{fill:none;}.cls-2{clip-path:url(#clip-path);}.cls-3{isolation:isolate;}.cls-4{fill:#fff;}</style><clipPath id="clip-path"><rect class="cls-1" y="5" width="91.75" height="14"/></clipPath></defs><g class="cls-2"><g class="cls-3"><g class="cls-2"><path class="cls-4" d="M13.76,12.08a6.94,6.94,0,0,1-6.9,6.86,6.9,6.9,0,0,1,0-13.79h0A6.92,6.92,0,0,1,13.78,12v0"/><path class="cls-4" d="M21.3,12.08c0,3.59-1.54,6.52-3.44,6.52s-3.44-2.93-3.44-6.52S16,5.56,17.86,5.56s3.44,2.91,3.44,6.52"/><path class="cls-4" d="M24.39,12.08c0,3.21-.54,5.84-1.21,5.84S22,15.3,22,12.08s.54-5.84,1.21-5.84,1.21,2.61,1.21,5.84"/><path class="cls-4" d="M91.75,18.61v-.16c-.78-.17-1.07-.51-1.07-1.2V11.57A2.53,2.53,0,0,0,88,8.74a2.75,2.75,0,0,0-2.63,1.8,2.39,2.39,0,0,0-2.55-1.8,2.54,2.54,0,0,0-2.48,1.66V8.77L76.46,9.84V10c.83.08,1.08.38,1.08,1.34v7.28h3.63v-.16c-.63-.14-.82-.41-.82-1.09V10.85A1.23,1.23,0,0,1,81.49,10c.81,0,1.22.56,1.22,1.67v6.93h3.63v-.16c-.62-.14-.81-.41-.81-1.09V11.57a3.57,3.57,0,0,0-.06-.65,1.3,1.3,0,0,1,1.2-.92c.82,0,1.22.55,1.22,1.67v6.94Zm-15.12-.16c-.72-.17-1.08-.42-1.08-1.33V8.77l-3.7,1.08V10c.69.08.89.38.89,1.38v5.27a1.36,1.36,0,0,1-1.17.76c-.84,0-1.31-.57-1.31-1.61v-7L66.37,9.89v.16h0c.84.08,1.07.37,1.07,1.35v4.47a4.7,4.7,0,0,0,.09.92l.07.3a2.37,2.37,0,0,0,2.54,1.8,2.78,2.78,0,0,0,2.59-1.83V18.6h3.9v-.16Zm-10,0c-.72-.17-1.08-.42-1.08-1.33V8.77L61.69,9.89v.16h0c.84.08,1.08.37,1.08,1.35v7.21h3.89v-.16Zm-1-11.84h0A1.52,1.52,0,0,0,64.15,5.1H64a1.55,1.55,0,1,0,0,3.1h.12a1.51,1.51,0,0,0,1.51-1.5v0M61.94,18.42a1.15,1.15,0,0,1-1.08-1.34V5L56.51,6.28v.15a1.63,1.63,0,0,1,1.25.25,1,1,0,0,1,.27.81V9.14a2.77,2.77,0,0,0-1.56-.41,4.22,4.22,0,0,0-3.21,1.48,5.94,5.94,0,0,0-1.31,4c0,2.83,1.38,4.72,3.46,4.72A2.75,2.75,0,0,0,58,17.13v1.5h3.89v-.21Zm-3.87-1.79a1.16,1.16,0,0,1-1.13.71,1.64,1.64,0,0,1-1.38-1A6.43,6.43,0,0,1,55,13.37c0-2.5.79-4.13,2-4.13a1.15,1.15,0,0,1,1.1.68ZM45.62,13h5.84v0a4.3,4.3,0,0,0-1.2-3.21,3.88,3.88,0,0,0-2.71-1h0a4.08,4.08,0,0,0-3.12,1.5,5.52,5.52,0,0,0-1.11,3V14c.06,2.72,1.53,4.89,4.13,4.89,2.3,0,3.62-1.68,4-3.92l-.17-.06a2.9,2.9,0,0,1-2.83,1.83A3.34,3.34,0,0,1,45.63,13m0-.49c.07-1.84.73-3.14,1.83-3.16a1.21,1.21,0,0,1,.85.33A4,4,0,0,1,49,12.47Zm-2.3-6.72V5.6H39.48l-3.64,8.53L32.21,5.6H28v.14c.71.17,1.08.41,1.08,1.27V17.17c0,.87-.37,1.1-1.08,1.26v.15h2.86v-.15c-.72-.16-1.08-.39-1.08-1.26V7.61l4.67,11h.26L39.51,7.3V17.41c-.06.68-.42.89-1.07,1v.15h5v-.14c-.66-.14-1-.36-1.1-1.05V7c0-.87.37-1.11,1.08-1.27"/></g></g></g></svg>