<svg id="Layer_1" data-name="Layer 1" xmlns="http://www.w3.org/2000/svg" xmlns:xlink="http://www.w3.org/1999/xlink" viewBox="0 0 69.69 24"><defs><style>.cls-1{fill:none;}.cls-2{clip-path:url(#clip-path);}.cls-3{isolation:isolate;}.cls-4{fill:#fff;}</style><clipPath id="clip-path"><rect class="cls-1" width="69.69" height="24"/></clipPath></defs><g class="cls-2"><g class="cls-3"><g class="cls-2"><circle class="cls-4" cx="62.93" cy="8.26" r="1.52"/><path class="cls-4" d="M38.34,11.31a2.49,2.49,0,0,1,2.25,1.91h-4.5A2.47,2.47,0,0,1,38.34,11.31Zm2.91,3.43h.09a1.06,1.06,0,0,0,1-1.06v0a4.23,4.23,0,0,0-4-4.05,4.35,4.35,0,0,0-4.09,4.57,4.35,4.35,0,0,0,4.09,4.57,4,4,0,0,0,3.17-1.34.9.9,0,0,0-.07-1.25l-.08-.06a.94.94,0,0,0-1.13.11,2.8,2.8,0,0,1-1.89.82A2.55,2.55,0,0,1,36,14.71h5.23Z"/><path class="cls-4" d="M34.34,10.48a.86.86,0,0,0-.71-.84,3.31,3.31,0,0,0-3.1,1.12v-.12a.86.86,0,1,0-1.72,0v7a.88.88,0,0,0,.8.88.85.85,0,0,0,.92-.79V13.9a2.61,2.61,0,0,1,2.6-2.6l.27,0h.17A.85.85,0,0,0,34.34,10.48Z"/><path class="cls-4" d="M63.79,11.4a.86.86,0,0,0-1.72,0v6.28a.86.86,0,0,0,1.72,0Z"/><path class="cls-4" d="M47.12,17a2.65,2.65,0,0,1-2.38-2.86,2.65,2.65,0,0,1,2.38-2.87,2.64,2.64,0,0,1,2.37,2.87A2.65,2.65,0,0,1,47.12,17ZM51,6.65a.86.86,0,0,0-1.72,0v3.82a3,3,0,0,0-2.19-.87A4.36,4.36,0,0,0,43,14.18a4.34,4.34,0,0,0,4.1,4.55,3,3,0,0,0,2.21-.89.86.86,0,0,0,.84.7.87.87,0,0,0,.86-.86Z"/><path class="cls-4" d="M56.07,17a2.65,2.65,0,0,1-2.38-2.86,2.42,2.42,0,1,1,4.76,0A2.64,2.64,0,0,1,56.07,17ZM60,6.65a.87.87,0,0,0-.86-.85.86.86,0,0,0-.86.86v3.82a3,3,0,0,0-2.19-.87A4.35,4.35,0,0,0,52,14.18a4.35,4.35,0,0,0,4.1,4.57,3,3,0,0,0,2.2-.89A.86.86,0,0,0,60,17.7Z"/><path class="cls-4" d="M68.14,17.7V11.31h.79a.77.77,0,0,0,.77-.76A.78.78,0,0,0,69,9.78h-.83V8.58a.86.86,0,0,0-1.72-.09V9.8h-.75a.76.76,0,0,0-.76.76.77.77,0,0,0,.73.77h.77v6.39a.87.87,0,0,0,.86.86A.9.9,0,0,0,68.14,17.7Z"/><path class="cls-4" d="M15,16.09a.31.31,0,0,0-.22-.09.32.32,0,0,0-.23.09,4,4,0,0,1-2.51.73,3.93,3.93,0,0,1-2.5-.73.34.34,0,0,0-.46,0,.34.34,0,0,0,0,.46,4.68,4.68,0,0,0,3,.92,4.6,4.6,0,0,0,3-.92.36.36,0,0,0,0-.46Z"/><path class="cls-4" d="M10.5,13.25h0a1.25,1.25,0,0,0-2.5,0,1.25,1.25,0,0,0,1.25,1.25h0A1.25,1.25,0,0,0,10.5,13.25Z"/><path class="cls-4" d="M14.77,12h0A1.25,1.25,0,1,0,16,13.26h0A1.26,1.26,0,0,0,14.77,12Z"/><path class="cls-4" d="M19,13.61a4.57,4.57,0,0,1,.05.52C19,16.84,15.9,19,12,19s-7-2.2-7-4.89a4.55,4.55,0,0,1,0-.52,1.88,1.88,0,0,1-.5-.35A1.74,1.74,0,0,1,4,12a1.75,1.75,0,0,1,3-1.25,8.73,8.73,0,0,1,4.75-1.5l.89-4.17a.24.24,0,0,1,.13-.2.25.25,0,0,1,.22,0l2.91.62A1.25,1.25,0,0,1,17,4.75a1.26,1.26,0,1,1-1.26,1.31L13.19,5.5l-.8,3.75a8.71,8.71,0,0,1,4.68,1.49A1.75,1.75,0,0,1,20,12,1.78,1.78,0,0,1,19,13.61ZM12,0h0A12,12,0,1,0,24,12h0A12.06,12.06,0,0,0,12,0Z"/></g></g></g></svg>