<svg xmlns="http://www.w3.org/2000/svg" viewBox="0 0 76.79 76.79"><defs><style>.cls-1{fill:#fff;}</style></defs><g id="Layer_2" data-name="Layer 2"><g id="Layer_1-2" data-name="Layer 1"><path class="cls-1" d="M47.9,51.48a1,1,0,0,0-1.44,0c-1.7,1.74-5.41,2.34-8,2.34s-6.28-.6-8-2.34a1,1,0,0,0-1.46,0A1,1,0,0,0,29,53c2.7,2.7,8,2.93,9.48,2.93s6.74-.19,9.49-2.93a1.16,1.16,0,0,0,0-1.47Z"/><path class="cls-1" d="M33.58,42.38a4,4,0,1,0-4,4A4,4,0,0,0,33.58,42.38Z"/><path class="cls-1" d="M47.19,38.44a4,4,0,1,0,4,4A4,4,0,0,0,47.19,38.44Z"/><path class="cls-1" d="M38.4,0A38.4,38.4,0,1,0,76.79,38.4,38.4,38.4,0,0,0,38.4,0ZM60.71,43.53a10.61,10.61,0,0,1,.14,1.69c0,8.66-10,15.63-22.41,15.63S16,53.84,16,45.22a9.55,9.55,0,0,1,.13-1.69,5.69,5.69,0,0,1-1.61-1.1,5.59,5.59,0,0,1,7.8-8,27.74,27.74,0,0,1,15.21-4.77l2.84-13.37a.93.93,0,0,1,.41-.65,1,1,0,0,1,.74-.13l9.3,2a4,4,0,1,1-.41,1.92l-8.34-1.79-2.57,12a27.81,27.81,0,0,1,15,4.76,5.61,5.61,0,1,1,6.19,9.17Z"/></g></g></svg>