<svg xmlns="http://www.w3.org/2000/svg" viewBox="0 0 58.91 48.61"><defs><style>.cls-1{fill:#fff;}</style></defs><g id="Layer_2" data-name="Layer 2"><g id="Layer_1-2" data-name="Layer 1"><g id="Layer_2-2" data-name="Layer 2"><g id="Layer_1-2-2" data-name="Layer 1-2"><g id="Слой_7" data-name="Слой 7"><path class="cls-1" d="M23,32.29,21.71,45.47s-.51,4,3.53,0,7.91-7.16,7.91-7.16"/></g><g id="Слой_5" data-name="Слой 5"><path class="cls-1" d="M14.48,28.33,1.18,24S-.41,23.35.1,21.89c.11-.31.32-.56,1-1C4,18.83,55.62.27,55.62.27A4.47,4.47,0,0,1,57.93.11a1.28,1.28,0,0,1,.86.93,4.19,4.19,0,0,1,.11,1.17c0,.34,0,.66-.07,1.16-.32,5.08-9.7,42.93-9.7,42.93s-.57,2.21-2.59,2.31a3.69,3.69,0,0,1-2.69-1C39.89,44.16,26.21,35,23.19,33a.56.56,0,0,1-.25-.41c0-.21.19-.46.19-.46S47,10.91,47.59,8.69c0-.17-.14-.26-.38-.19-1.59.59-29,17.91-32,19.82A1.34,1.34,0,0,1,14.48,28.33Z"/></g></g></g></g></g></svg>