<svg id="Layer_1" data-name="Layer 1" xmlns="http://www.w3.org/2000/svg" xmlns:xlink="http://www.w3.org/1999/xlink" viewBox="0 0 86.55 24"><defs><style>.cls-1{fill:none;}.cls-2{clip-path:url(#clip-path);}.cls-3{isolation:isolate;}.cls-4{fill:#fff;}</style><clipPath id="clip-path"><rect class="cls-1" y="3" width="86.55" height="18"/></clipPath></defs><g class="cls-2"><g class="cls-3"><g class="cls-2"><path class="cls-4" d="M8.5,15,8,19.83s-.19,1.5,1.31,0a38.67,38.67,0,0,1,2.93-2.65"/><path class="cls-4" d="M5.36,13.49.44,11.86s-.59-.19-.4-.73c0-.12.12-.21.35-.38C1.48,10,20.59,3.1,20.59,3.1A1.58,1.58,0,0,1,21.45,3a.48.48,0,0,1,.32.34,1.64,1.64,0,0,1,0,.44v.43c-.14,1.88-3.62,15.89-3.62,15.89a1.13,1.13,0,0,1-1,.86,1.35,1.35,0,0,1-1-.37C14.79,19.35,9.75,16,8.6,15.21a.24.24,0,0,1-.09-.15.4.4,0,0,1,.07-.18s8.82-7.83,9.06-8.67c0-.06-.05-.09-.14-.07-.59.22-10.74,6.63-11.86,7.34A.53.53,0,0,1,5.36,13.49Z"/><polygon class="cls-4" points="29.34 15.46 29.34 7.88 26.05 7.88 26.05 6.66 34.54 6.66 34.54 7.88 31.25 7.88 31.25 15.46 29.34 15.46"/><path class="cls-4" d="M37.12,11.54h2.43c0-1.11-.37-1.66-1.12-1.66S37.24,10.43,37.12,11.54Zm4.25,3.68a9.08,9.08,0,0,1-2.48.37,3.77,3.77,0,0,1-2.71-.92,3.28,3.28,0,0,1-1-2.53,3.34,3.34,0,0,1,.9-2.44,3.15,3.15,0,0,1,2.38-.92,2.56,2.56,0,0,1,2.17.9,4.72,4.72,0,0,1,.69,2.86H37.15a1.89,1.89,0,0,0,2.13,1.84A6.47,6.47,0,0,0,41.37,14Z"/><rect class="cls-4" x="43.27" y="6.07" width="1.83" height="9.4"/><path class="cls-4" d="M48.69,11.54h2.44c0-1.11-.37-1.66-1.12-1.66S48.81,10.43,48.69,11.54Zm4.25,3.68a9.08,9.08,0,0,1-2.48.37,3.77,3.77,0,0,1-2.71-.92,3.3,3.3,0,0,1-1-2.53,3.34,3.34,0,0,1,.91-2.44,3.18,3.18,0,0,1,2.39-.92,2.57,2.57,0,0,1,2.17.9,4.79,4.79,0,0,1,.69,2.86H48.71a1.88,1.88,0,0,0,2.14,1.84A6.47,6.47,0,0,0,52.94,14Z"/><path class="cls-4" d="M59.11,13v-2.4a1.87,1.87,0,0,0-1.38-.72,1.28,1.28,0,0,0-1.09.61,2.88,2.88,0,0,0-.4,1.62c0,1.28.43,1.92,1.28,1.92A2,2,0,0,0,59.11,13Zm-4.23,4.46L55,16.19a5.26,5.26,0,0,0,2.17.5,2.16,2.16,0,0,0,1.47-.41,1.78,1.78,0,0,0,.44-1.36V14a2.28,2.28,0,0,1-2.22,1.42A2.4,2.4,0,0,1,55,14.6a3.72,3.72,0,0,1-.7-2.39,3.77,3.77,0,0,1,.8-2.5,2.61,2.61,0,0,1,2.13-.94,2.81,2.81,0,0,1,1.92.8l.2-.66h1.63v5a9.28,9.28,0,0,1-.19,2.17A2.31,2.31,0,0,1,60,17.19a4,4,0,0,1-2.59.75A8.21,8.21,0,0,1,54.88,17.47Z"/><path class="cls-4" d="M63.21,15.46V9h1.84v1.19a2.32,2.32,0,0,1,2.17-1.37,1.31,1.31,0,0,1,.34,0v1.57a2.24,2.24,0,0,0-.72-.14,2.06,2.06,0,0,0-1.79,1.09v4.13Z"/><path class="cls-4" d="M72.33,13.8V12.48h-.44c-1.19,0-1.78.35-1.78,1.08a.83.83,0,0,0,.26.61.86.86,0,0,0,.61.21A2.05,2.05,0,0,0,72.33,13.8Zm0,.94a2.87,2.87,0,0,1-2,.85,2,2,0,0,1-1.45-.54,1.76,1.76,0,0,1-.54-1.35,1.88,1.88,0,0,1,.9-1.67,4.74,4.74,0,0,1,2.58-.59h.49v-.57c0-.67-.4-1-1.21-1a4.53,4.53,0,0,0-2.16.58V9.23a6.91,6.91,0,0,1,2.46-.45c1.79,0,2.68.68,2.67,2V13.7c0,.54.18.77.54.77l.25,0,0,1a3.27,3.27,0,0,1-1,.17,1.37,1.37,0,0,1-1.45-.85Z"/><path class="cls-4" d="M76.45,15.46V9h1.76v1.19a2.52,2.52,0,0,1,2.3-1.37,2,2,0,0,1,1.26.36,1.47,1.47,0,0,1,.59,1,2.77,2.77,0,0,1,2.3-1.37c1.25,0,1.87.65,1.87,2v4.71H84.77V11.32c0-.77-.27-1.16-.81-1.16s-1.08.39-1.62,1.15v4.15H80.58V11.32c0-.77-.27-1.16-.82-1.16s-1.08.38-1.59,1.15v4.15Z"/></g></g></g></svg>