<svg xmlns="http://www.w3.org/2000/svg" viewBox="0 0 47.46 38.56"><defs><style>.cls-1{fill:#fff;}</style></defs><g id="Layer_2" data-name="Layer 2"><g id="Layer_1-2" data-name="Layer 1"><g id="Logo"><path id="white_background" data-name="white background" class="cls-1" d="M42.6,9.6c0,.42,0,.84,0,1.26,0,12.86-9.8,27.7-27.71,27.7h0A27.49,27.49,0,0,1,0,34.19a19.93,19.93,0,0,0,2.32.14,19.58,19.58,0,0,0,12.09-4.18,9.75,9.75,0,0,1-9.1-6.76,9.62,9.62,0,0,0,4.4-.17A9.73,9.73,0,0,1,1.9,13.68v-.12a9.76,9.76,0,0,0,4.42,1.22,9.75,9.75,0,0,1-3-13A27.66,27.66,0,0,0,23.37,12,9.75,9.75,0,0,1,40,3.07,19.51,19.51,0,0,0,46.15.7a9.8,9.8,0,0,1-4.28,5.39,19.84,19.84,0,0,0,5.59-1.53A20.07,20.07,0,0,1,42.6,9.6Z"/></g></g></g></svg>