<svg id="Layer_1" data-name="Layer 1" xmlns="http://www.w3.org/2000/svg" xmlns:xlink="http://www.w3.org/1999/xlink" viewBox="0 0 93.82 24"><defs><style>.cls-1{fill:none;}.cls-2{clip-path:url(#clip-path);}.cls-3{isolation:isolate;}.cls-4{fill:#fff;}</style><clipPath id="clip-path"><rect class="cls-1" y="3" width="93.82" height="18"/></clipPath></defs><g class="cls-2"><g class="cls-3"><g class="cls-2"><path class="cls-4" d="M19.89,7.48v.61A12.85,12.85,0,0,1,7,21,12.81,12.81,0,0,1,0,19,9.79,9.79,0,0,0,1.08,19a9.17,9.17,0,0,0,5.65-2,4.55,4.55,0,0,1-4.26-3.16,4.58,4.58,0,0,0,2-.08A4.55,4.55,0,0,1,.86,9.39V9.33a4.55,4.55,0,0,0,2.06.57,4.58,4.58,0,0,1-1.4-6.09,12.87,12.87,0,0,0,9.37,4.75,4.55,4.55,0,0,1,7.77-4.13,9,9,0,0,0,2.88-1.1,4.53,4.53,0,0,1-2,2.51,9.11,9.11,0,0,0,2.61-.71A9.18,9.18,0,0,1,19.89,7.48Z"/><polygon class="cls-4" points="37.15 6.96 37.15 9.18 33.64 9.18 33.64 17.29 30.79 17.29 30.79 9.18 27.31 9.18 27.31 6.96 37.15 6.96"/><path class="cls-4" d="M40.19,10l1.11,4.3c.06.32.11.56.13.74a4.62,4.62,0,0,1,.15-.74l1.31-4.26h2.48l1.31,4.29a4.44,4.44,0,0,1,.21.71,4.12,4.12,0,0,1,.13-.74l1.1-4.26h2.65l-2.37,7.3H45.63l-1.26-4q-.06-.18-.12-.42c0-.14,0-.27-.07-.41h0a5.87,5.87,0,0,1-.19.83l-1.28,4H39.92l-2.38-7.27Z"/><path class="cls-4" d="M54.73,9.13a1.68,1.68,0,0,1-1.14-.37,1.28,1.28,0,0,1,0-1.91,1.66,1.66,0,0,1,1.12-.36,1.69,1.69,0,0,1,1.12.36,1.27,1.27,0,0,1,.42,1,1.24,1.24,0,0,1-.42,1A1.68,1.68,0,0,1,54.73,9.13ZM53.37,10h2.72v7.31H53.37Z"/><path class="cls-4" d="M63.09,11.74v2.35c0,.83.45,1.22,1.35,1.22a4.75,4.75,0,0,0,1-.1v2a6.39,6.39,0,0,1-1.74.22,3.92,3.92,0,0,1-2.5-.67,2.55,2.55,0,0,1-.81-2.06v-3H58.76V10h1.62V8.27l2.71-.61V10h2.35v1.73Z"/><path class="cls-4" d="M71.85,11.74v2.35c0,.83.46,1.22,1.36,1.22a4.75,4.75,0,0,0,1-.1v2a6.37,6.37,0,0,1-1.73.22,3.88,3.88,0,0,1-2.5-.67,2.51,2.51,0,0,1-.82-2.06v-3H67.53V10h1.62V8.27l2.7-.61V10h2.37v1.73Z"/><path class="cls-4" d="M82.55,12.82a1.44,1.44,0,0,0-.49-1.12,2,2,0,0,0-1.3-.41,2,2,0,0,0-1.32.41,1.58,1.58,0,0,0-.54,1.12Zm2.65,1.41H78.91a1.42,1.42,0,0,0,.61,1.09,2.52,2.52,0,0,0,1.49.4,3,3,0,0,0,1.21-.23,1.72,1.72,0,0,0,.81-.72l2,.87A3.56,3.56,0,0,1,83.42,17a6,6,0,0,1-2.47.48,5.2,5.2,0,0,1-3.38-1,3.43,3.43,0,0,1-1.22-2.79,3.94,3.94,0,0,1,.55-2.09,3.44,3.44,0,0,1,1.53-1.29,5.43,5.43,0,0,1,2.38-.48,4.64,4.64,0,0,1,3.24,1,3.61,3.61,0,0,1,1.15,2.85Z"/><path class="cls-4" d="M90.52,12a3.11,3.11,0,0,1,1-1.62,2.87,2.87,0,0,1,1.83-.57,1.93,1.93,0,0,1,.48,0v2.43a5.39,5.39,0,0,0-.8-.06,2.33,2.33,0,0,0-1.62.51,2.42,2.42,0,0,0-.64,1.87v2.68H88.06V10h2.48Z"/></g></g></g></svg>