<?xml version="1.0" encoding="utf-8"?>
<!-- Generator: Adobe Illustrator 25.4.0, SVG Export Plug-In . SVG Version: 6.00 Build 0)  -->
<svg version="1.1" id="Layer_1" xmlns="http://www.w3.org/2000/svg" xmlns:xlink="http://www.w3.org/1999/xlink" x="0px" y="0px"
	 viewBox="0 0 301 80" style="enable-background:new 0 0 301 80;" xml:space="preserve">
<style type="text/css">
	.st0{fill-rule:evenodd;clip-rule:evenodd;fill:#FF007A;}
</style>
<path class="st0" d="M24.4,29.7c-0.1,0.4-0.3,0.8-0.6,1.2c-0.5,0.6-1.2,1.1-1.9,1.5c-0.7,0.3-1.4,0.5-2.1,0.6c-0.2,0-0.3,0-0.5,0h0
	l0,0c-0.5,0-0.9,0.2-1.3,0.5c-0.4,0.3-0.6,0.7-0.7,1.1c-0.1,0.2-0.1,0.4-0.1,0.7c0,0.3-0.1,0.7-0.1,1.1c0,0.3,0,0.6-0.1,0.9
	c-0.2,1.3-0.5,2.5-1.1,3.6c-0.1,0.2-0.2,0.5-0.3,0.7h0c-0.6,1.2-1.2,2.3-1,3.8c0.1,1.1,0.7,1.9,1.5,2.7c0.4,0.4,0.9,0.7,1.4,1
	c1.4,0.9,3,2,2.5,4.6c-0.4,2.1-3.9,4.3-8.8,5.1c0.5-0.1-0.6-1.9-0.7-2.1l0,0c-0.1-0.2-0.3-0.4-0.4-0.6l0,0c-0.4-0.6-0.8-1.2-1.1-1.9
	c-0.8-1.7-1.2-3.8-0.9-5.7c0.3-1.7,1.4-3.1,2.5-4.4l0,0c0.2-0.2,0.4-0.4,0.5-0.6c1.5-1.8,3-4.2,3.3-6.6c0-0.2,0.1-0.4,0.1-0.7
	c0-0.4,0.1-0.9,0.2-1.3c0.1-0.8,0.4-1.6,0.7-2.3c0.2-0.5,0.6-0.9,1-1.3c0.2-0.2,0.3-0.4,0.4-0.7c0-0.3,0-0.6-0.1-0.8L8.8,15.7
	l11.3,14c0.1,0.2,0.3,0.3,0.5,0.4c0.2,0.1,0.4,0.1,0.6,0.1c0.2,0,0.4,0,0.6-0.1c0.2-0.1,0.4-0.2,0.5-0.4c0.1-0.2,0.2-0.4,0.2-0.6
	c0-0.2-0.1-0.4-0.2-0.6c-0.5-0.7-1.1-1.4-1.6-2l0,0l0,0c-0.2-0.3-0.4-0.5-0.7-0.8l-2.8-3.5l-5.7-7L0,1l12.1,13.4l6.1,6.7l3,3.4
	c0.3,0.3,0.6,0.6,0.8,0.9c0.7,0.8,1.4,1.6,2.2,2.5l0.2,0.2l0,0.3C24.5,28.9,24.5,29.3,24.4,29.7z M53.3,34.4L53.3,34.4
	c0-1.5-0.9-4-2.8-6.3l0-0.1c-0.6-0.7-1.2-1.4-1.9-2c-0.1-0.1-0.3-0.2-0.4-0.4c-0.9-0.8-1.8-1.4-2.8-2l-0.1,0
	C42.1,21.9,38,21,32.9,22c-0.7-0.8-1.4-1.6-2.2-2.4c-1.2-1.1-2.6-2.1-4.2-2.7c-1.5-0.6-3.2-0.8-4.8-0.6c1.6,0.1,3.1,0.6,4.5,1.3
	c1.4,0.7,2.6,1.7,3.6,2.8c1,1.2,2,2.4,2.9,3.7c0.1,0.1,0.2,0.2,0.2,0.3l0,0l0,0l0,0l0,0l0,0c0.9,1.2,1.8,2.4,2.9,3.4
	c0.6,0.6,1.3,1.1,2.1,1.5c0.2,0.1,0.4,0.2,0.6,0.3c0.2,0.1,0.4,0.2,0.6,0.2c0.4,0.2,0.8,0.3,1.2,0.4c1.6,0.5,3.2,0.6,4.8,0.7
	c0.2,0,0.4,0,0.7,0h0h0h0c0.6,0,1.1,0.1,1.7,0.1c0.8,0,1.5,0.2,2.3,0.4c1.1,0.3,2.1,1,2.8,1.9C52.9,33.8,53.1,34.1,53.3,34.4z
	 M178.6,24.8c-5.3,1.3-7.7,5.5-6.2,10.4c0.6,2.1,2.6,4.3,5.4,5.9c5,2.9,6.5,4.1,7.4,5.8c0.7,1.5,0.8,2,0.4,3.3
	c-0.8,3.1-3.1,4.9-6.2,4.9c-3.2,0-5.5-1.8-6-4.8c-0.2-1.2-0.5-1.6-1-1.6c-0.7,0-0.8,0.3-0.8,3.4v3.4l2.1,0.7c3.3,1.1,8,1,10.8-0.3
	c5.4-2.5,7.5-7.5,5.1-12.2c-0.9-1.7-3.2-3.7-7.1-6.1c-4.1-2.5-6-4.3-6.2-6.1c-0.4-2.8,2.1-5.2,5.6-5.2c2.7,0,3.9,0.7,4.9,2.7
	c0.6,1.3,1,1.7,1.8,1.7c0.8,0,0.9-0.1,0.7-0.9c-0.1-0.5-0.2-1.7-0.2-2.8c0-1.3-0.2-1.9-0.6-2.1C187,24.6,180.1,24.4,178.6,24.8z
	 M72.8,26c0,0.6,0.3,0.8,1,0.8c1.9,0,2,0.6,2.3,12.1c0.2,10.1,0.3,10.9,1.1,12.4c1.2,2.1,2.7,3.6,5.2,4.7c1.7,0.8,2.7,0.9,6,0.9
	c3.6,0,4.2-0.1,6.3-1.1c1.3-0.6,2.8-1.8,3.5-2.6c2.3-2.8,2.5-4.1,2.8-15.4c0.2-10.9,0.3-11.1,2.1-11.1c0.4,0,0.7-0.3,0.7-0.8
	c0-0.8-0.3-0.8-4.8-0.8c-4.5,0-4.8,0.1-4.8,0.8c0,0.6,0.3,0.8,1.3,0.9c2.1,0.2,2.3,1,2.3,10.9c0,10.1-0.3,12-2.5,14
	c-2,1.9-3.6,2.5-6.3,2.5c-3.9,0-6.7-1.8-7.6-5c-0.3-1.1-0.4-5-0.3-11.8l0.1-10.2l1.4-0.5c0.8-0.2,1.5-0.7,1.5-1.1
	c0.1-0.6-0.5-0.6-5.5-0.6C73.1,25.2,72.8,25.2,72.8,26z M110.1,26c0,0.6,0.3,0.8,1.2,0.8c2,0,3.2,0.8,3.7,2.5
	c0.3,1,0.4,5.6,0.3,12.2c-0.1,11.8-0.3,12.6-2.7,13.1c-0.8,0.2-1.2,0.5-1.2,1c0,0.7,0.4,0.7,5.6,0.7c5.1,0,5.6-0.1,5.6-0.7
	c0-0.5-0.5-0.9-1.8-1.2c-1.6-0.4-1.8-0.6-2.2-2c-0.5-1.7-0.6-19.7-0.1-19.7c0.2,0,1.7,1.7,3.5,3.7s6.5,7.3,10.6,11.8
	c6.4,7,7.6,8.1,8.6,8.1h1.2l0.1-14.2c0.1-10.1,0.2-14.3,0.6-14.6c0.3-0.3,1.1-0.6,1.8-0.7c0.8-0.2,1.3-0.5,1.3-0.9
	c0-0.5-1-0.6-5.5-0.7c-5.3-0.1-5.5-0.1-5.5,0.7c0,0.6,0.3,0.8,1,0.8c0.5,0,1.5,0.4,2.1,1l1.1,1l0.1,9.6c0.1,5.4,0,9.6-0.2,9.6
	c-0.2,0-1.4-1.2-2.7-2.7c-1.3-1.5-5-5.6-8.2-9.1c-3.2-3.5-6.8-7.4-7.8-8.7l-2-2.3l-4.1,0C110.4,25.2,110.1,25.2,110.1,26z M152.3,26
	c0,0.6,0.3,0.8,1.1,0.8c0.6,0,1.5,0.3,1.9,0.6c0.7,0.5,0.8,1.2,0.9,12.3c0.1,13.8,0,14.6-2.3,15c-1.2,0.2-1.6,0.4-1.6,1
	c0,0.7,0.4,0.7,6,0.7c5.7,0,6,0,6-0.8c0-0.6-0.3-0.8-0.9-0.8c-0.5,0-1.3-0.3-1.7-0.6c-0.7-0.5-0.8-1.2-0.9-13.2
	c-0.1-12.2-0.1-12.6,0.7-13.4c0.4-0.4,1.3-0.8,1.8-0.8c0.7,0,1-0.2,1-0.8c0-0.8-0.3-0.8-6-0.8S152.3,25.2,152.3,26z M194.2,26
	c0.1,0.5,0.5,0.8,1.1,0.8c0.5,0,1.3,0.4,1.8,0.9c0.5,0.5,3.2,7.1,6.2,14.9l5.3,14l1.4,0.1l1.4,0.1l3.7-9.9c2.1-5.5,4-10.3,4.2-10.9
	c0.5-0.9,0.6-0.8,1.8,2.4c0.7,1.8,2.6,6.7,4.2,10.8l2.9,7.5h1.3c0.7,0,1.4-0.2,1.5-0.5c0.1-0.3,2-5,4.1-10.5
	c2.1-5.5,4.5-11.5,5.3-13.5c1.7-4.4,2.1-5,3.4-5.4c0.6-0.2,1.1-0.7,1.1-1c0-0.5-0.7-0.6-4.8-0.6c-4.5,0-4.8,0-4.8,0.8
	c0,0.6,0.3,0.8,1,0.8c1.6,0,2.2,0.4,2.2,1.4c0,0.8-7.6,21.5-8.1,22c-0.3,0.3-7.2-19-7.4-20.8c-0.2-1.7,0.5-2.6,2.2-2.6
	c0.7,0,0.9-0.2,0.9-0.8c0-0.8-0.3-0.8-6.2-0.8c-5.9,0-6.2,0-6.2,0.8c0,0.5,0.3,0.8,0.6,0.8c1.3,0,2.9,1.2,3.3,2.4
	c0.6,1.8,0.1,3.5-3.5,13.1l-3.1,8.2l-0.7-1.6c-0.4-0.9-2.3-5.9-4.2-11.2c-3.8-10.5-3.9-10.9-1.4-10.9c0.9,0,1.2-0.2,1.2-0.8
	c0-0.8-0.3-0.8-6-0.8C194.2,25.2,194,25.2,194.2,26z M275.5,26.2c0,0,0,0.5,0.1,0.7c0.1,0.2,0.5,0.2,0.5,0.2
	c0.3,0.1,0.5,0.1,0.8,0.2c1.2,0.3,2.1,0.5,2.4,1.3c0.2,0.5,0.2,2.4,0.2,12.4c0,10.6,0,11.9-0.3,12.6c-0.4,0.9-1,1.3-2.6,1.8
	c0,0-0.7,0.2-0.9,0.4c-0.2,0.2-0.2,0.6-0.2,0.6s0,0.4,0.1,0.5c0.2,0.2,0.6,0.1,0.6,0.1l4,0l6.7,0.1c0,0,0.3,0,0.4-0.1
	s0.1-0.5,0.1-0.5s0-0.4-0.2-0.5c-0.2-0.2-0.9-0.3-0.9-0.3c-1.5-0.4-2.3-0.9-2.6-1.6c-0.3-0.6-0.3-2.2-0.3-5.4v-4.8
	c0.2,0.1,0.3,0.2,0.5,0.3l0,0v0v0l0,0c0.8,0.5,1.7,1.2,5.3,1.3c4.3,0.1,7-1.8,8.5-4.1c1.6-2.2,2.2-5.8,1-9.5c-1.1-3.8-4.5-6-9.2-6.3
	c-2.5-0.1-6,0-8,0.1h0l-0.2,0l-0.3,0c-1.8,0.1-4,0.3-5.1,0.4l0,0c-0.3,0-0.3,0-0.4,0.1C275.5,26,275.5,26.2,275.5,26.2z M293.1,41
	c1.7-1.6,1.8-4.2,1.8-5.9c-0.2-2.6-1.2-7.5-7.1-7.5c-1.4-0.1-4.2,0.2-4.3,2.1c-0.1,0.3-0.1,2.7-0.1,6.3l0,5.8l0.6,0.3l0,0
	c0.3,0.2,0.7,0.4,1.5,0.5C287.9,43.1,291.4,42.6,293.1,41z M256.3,25.7c0.4-0.2,0.7-0.3,0.7-0.3s0.7-0.3,0.9,0
	c0.1,0.1,0.3,0.7,0.9,2.2l0,0l0.1,0.3l0.2,0.6c0.9,2.2,2.1,5.5,2.8,7.2c0.7,1.7,2,5,2.9,7.5c0.9,2.4,2.1,5.5,2.7,6.9
	c0.5,1.4,1.2,2.8,1.4,3c0.1,0.1,0.2,0.3,0.3,0.5v0c0.4,0.7,1,1.6,2.1,1.8c0,0,0.9,0.1,1,0.3c0.1,0.1,0.2,0.4,0.2,0.4v0.5
	c0,0,0,0.1-0.1,0.2c-0.1,0.1-0.3,0.1-0.3,0.1l-6.7,0l-4.7,0c0,0-0.2,0-0.3-0.1c-0.1-0.1-0.1-0.3-0.1-0.3v-0.3c0,0,0-0.3,0.1-0.5
	c0.2-0.2,1-0.3,1-0.3c1.4-0.1,2-1.3,2.3-2l0,0c0,0,0-0.1,0.1-0.1c0.3-0.7,0.2-1.1-1.2-4.6c-0.9-2.3-1.3-2.9-1.5-3
	c-0.2,0-2.6-0.1-5.5,0l-5.2,0l-0.3,0.9c-0.9,2.5-1.7,5-1.8,5.6c-0.2,1.4,0.1,2.9,2.1,3.1c0,0,0.7,0.1,0.9,0.3
	c0.2,0.1,0.3,0.5,0.3,0.5v0.4c0,0,0,0.2-0.2,0.3c-0.1,0.1-0.5,0.1-0.5,0.1h-5l-4.8,0.1c0,0-0.2,0-0.4-0.1c-0.2-0.1-0.2-0.2-0.2-0.2
	v-0.3c0,0,0-0.2,0.2-0.5c0.3-0.3,1-0.3,1-0.3c1.3-0.2,2.1-1.6,2.5-2.4c0-0.1,0.1-0.1,0.1-0.2c0.2-0.3,0.9-2.2,1.7-4.1
	c0.8-1.9,1.6-4.1,1.9-4.8c1-2.4,1.9-4.7,3.3-8.2c0.8-1.9,1.9-4.8,2.5-6.3l1.1-2.8L256.3,25.7z M255.9,32.5c0.2,0.6,0.6,1.5,0.8,2
	c0.2,0.5,0.8,2,1.3,3.2c0.5,1.3,1.1,2.8,1.4,3.4c0.3,0.6,0.5,1.1,0.5,1.2c0,0-1.9,0.1-4.3,0.1c-2.7,0-4.3-0.1-4.3-0.1
	c0-0.1,0.1-0.4,0.2-0.7c0.2-0.5,1.1-3,3-8.6c0.3-0.9,0.6-1.6,0.6-1.7C255.3,31.1,255.5,31.4,255.9,32.5z M28.8,34.6
	c1.3,2.3-1.6,3-3,3.1c-2.1,0.2-2.5-1-2.1-2.5c0.1-0.5,0.4-1,0.8-1.4c0.4-0.4,0.9-0.6,1.5-0.6c0.5,0,1.1,0.1,1.6,0.3
	C28.1,33.8,28.5,34.2,28.8,34.6z M46.7,40.9c-5.2-2.1-10.5-4.3-9.7-10.5c1.7,1.8,4.4,2.2,7.4,2.7c2.7,0.4,5.5,0.8,8,2.3
	c5.9,3.7,5,10.8,3,13.4C55.5,44.5,51.2,42.7,46.7,40.9z M48.6,26c-0.1-0.1-0.2-0.1-0.2-0.2c-0.1,0-0.1-0.1-0.2-0.1
	c0,0,0.1,0.1,0.1,0.1C48.4,25.9,48.5,25.9,48.6,26z M25.5,19.6c-0.9-1-2.2-1.5-3.5-1.7c0,0.3-0.1,0.7-0.1,1
	c-0.1,2.7,0.9,5.7,2.7,7.7c0.6,0.7,1.3,1.2,2.1,1.6c0.5,0.2,1.7,0.8,2.1,0.3c0,0,0.1-0.1,0.1-0.2s0-0.1,0-0.2
	c-0.1-0.2-0.2-0.4-0.4-0.6h0c-0.1-0.1-0.2-0.3-0.3-0.4c-0.1-0.1-0.2-0.3-0.2-0.4c-0.2-0.3-0.3-0.5-0.4-0.8c-0.3-0.7-0.5-1.5-0.6-2.3
	l0,0l0,0v0l0,0l0,0c0-0.2-0.1-0.3-0.1-0.5C26.7,21.9,26.4,20.6,25.5,19.6z M43.7,41.2c-1.3,3.7,0.8,6.8,2.9,10
	c2.4,3.5,4.7,7,2.2,11.2c4.9-2,7.2-8.2,5.2-13c-1.3-3.1-4.4-4.7-7.2-6.3h0v0C45.7,42.4,44.7,41.8,43.7,41.2z M29.4,50.1
	c-0.9,0.4-1.7,0.8-2.5,1.4c1.7-0.6,3.6-1,5.4-1.1c0.3,0,0.7,0,1-0.1h0h0h0h0c0.6,0,1.2-0.1,1.8-0.1c1-0.1,2-0.3,2.9-0.6
	c1-0.3,1.9-0.9,2.6-1.7c0.8-0.8,1.3-1.7,1.5-2.8c0.2-1,0.2-2-0.1-3c-0.3-1-0.8-1.9-1.5-2.6c0.3,0.9,0.5,1.8,0.6,2.7
	c0.1,0.9-0.1,1.7-0.3,2.5c-0.3,0.8-0.7,1.5-1.3,2c-0.6,0.6-1.3,1-2.1,1.3c-1.1,0.4-2.3,0.6-3.6,0.8h0c-0.6,0.1-1.2,0.2-1.8,0.3
	C31.2,49.4,30.3,49.7,29.4,50.1z M44.8,65.4L44.8,65.4c-0.3,0.2-0.5,0.4-0.8,0.6c-0.3,0.2-0.6,0.4-1,0.5c-0.7,0.3-1.5,0.5-2.3,0.5
	c-2.1,0-3.6-1.6-4.5-3.4c-0.2-0.5-0.4-1-0.6-1.4c-0.3-0.8-0.7-1.6-1.1-2.3c-1-1.7-2.8-3-4.8-2.8c-0.8,0.1-1.6,0.5-2.1,1.2
	c-1.2,1.9,0.5,4.6,2.8,4.2c0.2,0,0.4-0.1,0.6-0.2c0.2-0.1,0.3-0.2,0.5-0.3c0.3-0.3,0.5-0.6,0.7-1c0.1-0.4,0.2-0.8,0.1-1.3
	c-0.1-0.4-0.3-0.8-0.7-1.1c0.4,0.2,0.8,0.6,0.9,1c0.2,0.5,0.2,1,0.1,1.4c-0.1,0.5-0.3,1-0.6,1.4c-0.2,0.2-0.4,0.4-0.6,0.5
	c-0.2,0.1-0.5,0.3-0.7,0.3c-0.5,0.2-1,0.2-1.6,0.2c-0.7-0.1-1.4-0.4-2-0.9c-0.1-0.1-0.2-0.2-0.3-0.3c-0.4-0.3-0.8-0.7-1.1-1.2
	c-0.1-0.2-0.3-0.3-0.4-0.5c-0.7-0.8-1.6-1.4-2.5-1.8c-0.6-0.3-1.3-0.5-2-0.6c-0.3-0.1-0.7-0.1-1-0.2c0,0-0.1,0-0.2,0l0,0l0,0
	c-0.3-0.1-0.8-0.1-0.9-0.1c1.1-1,2.3-1.9,3.5-2.7c1.3-0.8,2.7-1.4,4.1-1.8c1.5-0.4,3.1-0.5,4.6-0.4c0.8,0.1,1.6,0.3,2.3,0.6
	c0.8,0.3,1.5,0.8,2.1,1.3c0.6,0.6,1.1,1.3,1.5,2.1c0.3,0.7,0.6,1.5,0.7,2.3c0.1,0.4,0.1,0.9,0.2,1.4v0l0,0l0,0
	c0.3,2.2,0.6,4.7,3.1,5.1c0.2,0,0.3,0.1,0.5,0.1l0.5,0c0.3,0,0.7-0.1,1-0.1c0.7-0.2,1.4-0.4,2-0.7L44.8,65.4L44.8,65.4z M25.7,61.4
	c0.1,0.1,0.2,0.2,0.2,0.3c0,0-0.1-0.1-0.1-0.1l0,0v0h0C25.8,61.5,25.7,61.4,25.7,61.4z"/>
</svg>
