<svg xmlns="http://www.w3.org/2000/svg" viewBox="0 0 102.41 71.63"><defs><style>.cls-1{fill:#fff;}</style></defs><g id="Layer_2" data-name="Layer 2"><g id="Layer_1-2" data-name="Layer 1"><path class="cls-1" d="M100.28,11.19a12.86,12.86,0,0,0-9.09-9C83.2,0,51.18,0,51.18,0s-32,0-40,2.14a12.84,12.84,0,0,0-9,9C0,19.17,0,35.83,0,35.83S0,52.49,2.14,60.47a12.83,12.83,0,0,0,9,9c8,2.11,40,2.11,40,2.11s32,0,40-2.14a12.84,12.84,0,0,0,9.09-9c2.13-8,2.13-24.64,2.13-24.64S102.37,19.17,100.28,11.19ZM41,51.18V20.48l26.6,15.35Z"/></g></g></svg>