<svg id="Layer_1" data-name="Layer 1" xmlns="http://www.w3.org/2000/svg" xmlns:xlink="http://www.w3.org/1999/xlink" viewBox="0 0 71.72 24"><defs><style>.cls-1{fill:none;}.cls-2{clip-path:url(#clip-path);}.cls-3{isolation:isolate;}.cls-4{fill:#fff;}</style><clipPath id="clip-path"><rect class="cls-1" y="4" width="71.72" height="16"/></clipPath></defs><g class="cls-2"><g class="cls-3"><g class="cls-2"><path class="cls-4" d="M9.15,15.43V8.57L15.09,12ZM22.4,6.52a2.86,2.86,0,0,0-2-2C18.59,4,11.43,4,11.43,4s-7.15,0-8.91.48a2.85,2.85,0,0,0-2,2A29.2,29.2,0,0,0,0,12a29.57,29.57,0,0,0,.48,5.5,2.85,2.85,0,0,0,2,2c1.78.47,8.94.47,8.94.47s7.14,0,8.93-.48a2.86,2.86,0,0,0,2-2A31.07,31.07,0,0,0,22.88,12,30.12,30.12,0,0,0,22.4,6.52Z"/><path class="cls-4" d="M35.73,17a4.81,4.81,0,0,0,.19-1.6V12.27a4.7,4.7,0,0,0-.19-1.58.67.67,0,0,0-1.3,0,4.7,4.7,0,0,0-.19,1.58v3.12a4.57,4.57,0,0,0,.19,1.6.64.64,0,0,0,.65.49A.66.66,0,0,0,35.73,17Zm-2.52,1.57a2.53,2.53,0,0,1-1-1.42A9.66,9.66,0,0,1,32,14.57V13.12a8.15,8.15,0,0,1,.33-2.6,2.55,2.55,0,0,1,1-1.43,3.33,3.33,0,0,1,1.82-.47,3.13,3.13,0,0,1,1.78.46,2.65,2.65,0,0,1,1,1.43,8.78,8.78,0,0,1,.31,2.6v1.45a9.34,9.34,0,0,1-.3,2.58,2.58,2.58,0,0,1-1,1.42,3.33,3.33,0,0,1-1.85.45A3.26,3.26,0,0,1,33.21,18.56Z"/><path class="cls-4" d="M68.22,10.39a1.36,1.36,0,0,0-.23.7,12,12,0,0,0-.06,1.46v.7h1.65v-.71a12,12,0,0,0-.06-1.47,1.38,1.38,0,0,0-.25-.7.65.65,0,0,0-.53-.21.64.64,0,0,0-.52.22Zm-.29,4.21v.51A11.56,11.56,0,0,0,68,16.55a1.33,1.33,0,0,0,.23.7.7.7,0,0,0,.56.23.71.71,0,0,0,.69-.39,3.33,3.33,0,0,0,.21-1.32l1.94.11a2.16,2.16,0,0,1,0,.36,2.62,2.62,0,0,1-.76,2.07,3.08,3.08,0,0,1-2.14.69A2.55,2.55,0,0,1,66.38,18a6.1,6.1,0,0,1-.67-3.23V13a6.08,6.08,0,0,1,.69-3.29,2.66,2.66,0,0,1,2.38-1,3.17,3.17,0,0,1,1.78.42,2.36,2.36,0,0,1,.91,1.32,10.42,10.42,0,0,1,.25,2.49v1.72Z"/><path class="cls-4" d="M27.7,14.41,25.13,5.13h2.24l.9,4.2c.23,1,.42,1.93.51,2.66h.06q.12-.79.51-2.64l.94-4.2h2.24l-2.6,9.26v4.45H27.7Z"/><path class="cls-4" d="M45.48,8.83v10H43.72l-.18-1.23h0A2.32,2.32,0,0,1,41.32,19a1.66,1.66,0,0,1-1.47-.66,3.45,3.45,0,0,1-.47-2V8.83h2.24v7.36a2.25,2.25,0,0,0,.15,1,.51.51,0,0,0,.49.29,1.1,1.1,0,0,0,.56-.19,1.13,1.13,0,0,0,.39-.45v-8Z"/><path class="cls-4" d="M57.05,8.83v10H55.29l-.19-1.23h0A2.3,2.3,0,0,1,52.91,19a1.66,1.66,0,0,1-1.47-.66,3.53,3.53,0,0,1-.48-2V8.83h2.27v7.36a2.24,2.24,0,0,0,.14,1,.52.52,0,0,0,.49.29,1,1,0,0,0,.56-.19,1.06,1.06,0,0,0,.39-.45v-8Z"/><polygon class="cls-4" points="51.61 6.94 49.37 6.94 49.37 18.86 47.16 18.86 47.16 6.94 44.92 6.94 44.92 5.13 51.61 5.13 51.61 6.94"/><path class="cls-4" d="M62.45,14.51a12.17,12.17,0,0,1-.09,1.71,1.89,1.89,0,0,1-.3.89.7.7,0,0,1-.57.26,1,1,0,0,1-.89-.52V11.17A1.47,1.47,0,0,1,61,10.5a.87.87,0,0,1,.61-.26.62.62,0,0,1,.52.27,2.08,2.08,0,0,1,.26.91,15.65,15.65,0,0,1,.07,1.81Zm2.07-4.07A2.54,2.54,0,0,0,63.86,9a1.87,1.87,0,0,0-1.26-.42A2.07,2.07,0,0,0,61.44,9a2.36,2.36,0,0,0-.85.92V4.63H58.43V18.86H60.3l.23-.95h0a1.84,1.84,0,0,0,.76.8A2.22,2.22,0,0,0,62.5,19a1.77,1.77,0,0,0,1.68-1.06,7.68,7.68,0,0,0,.54-3.29V13.07A13.59,13.59,0,0,0,64.52,10.44Z"/></g></g></g></svg>