<svg width="572" height="195" viewBox="0 0 572 195" fill="none" xmlns="http://www.w3.org/2000/svg">
<path d="M75.3482 91.0821L59.1528 95.6292L59.1529 69.9206L78.1049 69.9206L78.1049 50.6828L59.1529 50.6828L59.1529 17.6289L39.1671 17.6289L39.1671 50.6828L21.2488 50.6828L21.2488 69.9206L39.1671 69.9206L39.1671 101.051C31.414 102.975 24.35 104.723 18.4921 106.123L22.9717 126.06L39.167 121.338L39.167 157.715C39.167 159.988 38.4779 160.688 36.4104 160.688C34.3429 160.863 28.3127 160.863 22.1102 160.513C24.6946 166.459 27.2789 175.378 27.6235 180.975C38.9947 180.975 46.5755 180.1 51.9165 176.603C57.4299 173.28 59.1528 167.683 59.1528 157.715L59.1528 115.741C65.5276 113.818 71.7301 111.894 77.9325 109.97L75.3482 91.0821ZM152.535 125.885L152.535 155.091L106.188 155.091L106.188 125.885L152.535 125.885ZM86.5471 180.975L106.188 180.975L106.188 173.629L152.535 173.629L152.535 180.275L173.209 180.275L173.21 107.347L86.5471 107.347L86.5471 180.975ZM81.8953 25.8486L81.8953 44.7366L106.188 44.7366C103.776 63.4497 97.4015 78.665 75.5205 88.109C79.6555 91.6067 85.3411 99.1269 87.5808 104.374C115.492 91.4318 123.59 70.795 126.863 44.7366L155.291 44.7365C154.258 67.2972 153.052 76.5663 150.639 79.3645C149.089 80.9385 147.71 81.4631 145.298 81.4632C142.197 81.4632 136.167 81.2883 129.448 80.5887C132.721 85.8354 134.961 94.0551 135.305 100.351C143.403 100.526 150.984 100.351 155.464 99.6516C160.805 98.952 164.595 97.2031 168.041 92.656C172.693 87.0596 174.243 71.4945 175.794 33.8934C175.966 31.2701 175.966 25.8486 175.966 25.8486L81.8953 25.8486Z" fill="#07F70E"/>
<path d="M229.032 76.916L230.238 97.5528C256.254 99.1268 283.993 99.1268 305.185 97.7277C307.941 103.674 311.215 109.795 314.833 115.916C309.664 115.391 300.36 114.517 293.124 113.817L291.401 130.432C303.978 131.831 322.586 134.104 332.234 136.028L342.744 119.939C339.643 116.965 337.231 114.342 334.991 111.019C331.89 106.472 328.961 101.051 326.032 95.4541C336.369 94.055 345.673 92.1312 353.598 90.0325L350.153 69.3957C341.71 71.6692 331.373 74.6424 317.245 76.3913C316.211 73.5931 315.177 70.9697 314.316 68.5213C313.455 65.898 312.593 63.0997 311.732 60.3015C323.103 58.7275 333.957 56.454 343.433 53.8306L340.677 33.7184C329.65 37.2162 318.623 39.6647 306.735 41.2387C305.529 35.2925 304.495 29.1714 303.634 22.8754L280.547 25.4987C282.614 31.6198 284.337 37.2162 286.06 42.8127C270.209 43.3374 252.636 42.6378 232.133 40.1894L233.339 60.3016C255.048 62.4002 275.206 62.75 291.401 61.8755C292.435 64.8486 293.469 68.1715 294.847 72.194C295.536 74.1177 296.225 76.2164 297.087 78.3151C277.963 79.5393 254.703 79.3644 229.032 76.916ZM262.112 117.49L240.748 113.293C236.785 121.687 232.995 130.257 233.339 141.45C233.684 166.459 255.048 176.777 289.506 176.777C303.634 176.777 319.312 175.553 331.373 173.454L332.579 151.244C320.346 153.692 305.701 155.091 289.334 155.091C266.591 155.091 254.531 149.845 254.531 136.903C254.531 129.383 257.977 123.261 262.112 117.49Z" fill="#07F70E"/>
<path d="M441.467 20.9515C438.366 25.8484 434.92 30.9202 430.957 35.6421C426.822 30.5704 422.17 25.4986 416.312 20.6017L402.012 31.6197C408.559 37.391 414.073 43.5121 418.208 49.6332C411.488 56.279 404.424 62.2252 397.188 67.1221C401.495 70.7948 407.525 77.2656 410.11 81.6379C415.968 77.6154 421.826 73.0683 427.339 68.1714C429.406 73.7679 430.785 79.889 431.646 86.1849C423.548 100.351 409.765 115.391 397.705 123.436C402.529 127.284 408.042 133.93 411.316 138.826C418.552 132.705 426.133 124.486 433.197 115.566C433.024 134.804 431.646 151.243 428.2 155.791C426.822 157.714 425.271 158.414 423.032 158.764C419.586 159.113 413.728 159.288 405.802 158.589C409.076 164.535 410.971 171.88 410.971 178.526C418.897 178.876 425.961 178.701 432.508 177.127C436.643 176.078 440.433 173.804 443.017 170.306C450.77 159.638 452.666 136.203 452.666 112.243C452.666 91.6065 451.115 71.8441 442.156 53.3059C447.497 47.0099 452.493 40.539 456.628 33.5435L441.467 20.9515ZM496.6 102.275L496.6 118.889L479.026 118.889L479.026 102.275L496.6 102.275ZM533.298 118.889L515.035 118.889L515.035 102.275L533.298 102.275L533.298 118.889ZM515.035 153.692L515.035 136.553L533.298 136.553L533.298 153.692L515.035 153.692ZM479.026 136.553L496.6 136.553L496.6 153.692L479.026 153.692L479.026 136.553ZM460.591 180.1L479.026 180.1L479.026 171.705L533.298 171.705L533.298 179.226L552.767 179.226L552.767 84.0862L460.591 84.0863L460.591 180.1ZM537.605 40.3641L537.605 17.6285L517.792 17.6286L517.792 40.3641L494.36 40.3641L494.36 17.6286L474.719 17.6286L474.719 40.3641L454.733 40.3641L454.733 59.0772L474.719 59.0772L474.719 78.6647L494.36 78.6647L494.36 59.0772L517.792 59.0772L517.792 78.6647L537.605 78.6647L537.605 59.0771L558.108 59.0771L558.108 40.3641L537.605 40.3641Z" fill="#07F70E"/>
<path fill-rule="evenodd" clip-rule="evenodd" d="M80.9178 93.5869C80.0923 92.5699 79.255 91.6051 78.4352 90.7291C77.5104 89.7409 76.6077 88.8658 75.7688 88.1562C78.8862 86.8106 81.6889 85.348 84.2103 83.7747C85.54 82.945 86.7915 82.0845 87.9696 81.1943C88.0288 81.1496 88.0877 81.1048 88.1465 81.06C89.513 80.0173 90.78 78.9341 91.9551 77.812C97.7391 72.2885 101.298 65.8205 103.561 58.5908C104.92 54.2498 105.811 49.6343 106.437 44.7838L82.1436 44.7838L82.1436 25.8958L176.215 25.8958C176.215 25.8958 176.215 31.3173 176.042 33.9406C175.961 35.9219 175.879 37.8421 175.797 39.7028C174.32 73.1543 172.696 87.4017 168.289 92.7032C168.056 93.0103 167.822 93.3047 167.586 93.5869C164.324 97.4818 160.692 99.0465 155.712 99.6988C151.232 100.398 143.652 100.573 135.554 100.398C135.46 98.6846 135.226 96.8284 134.869 94.9283C134.785 94.4832 134.694 94.0356 134.597 93.5869C133.747 89.654 132.396 85.634 130.692 82.3823C130.372 81.7711 130.04 81.1871 129.696 80.6359C130.291 80.6979 130.881 80.7558 131.464 80.8098C137.226 81.3433 142.307 81.4983 145.203 81.5097C145.321 81.5101 145.436 81.5104 145.547 81.5104C147.959 81.5104 149.337 80.9857 150.888 79.4117C152.732 77.2719 153.872 71.3482 154.768 58.5907C155.044 54.6651 155.296 50.0924 155.54 44.7837L127.112 44.7838C126.163 52.3388 124.808 59.4381 122.682 66.0263C120.767 71.9635 118.226 77.4856 114.791 82.552C112.104 86.5156 108.87 90.2004 104.961 93.5869C103.338 94.9931 101.599 96.3479 99.7336 97.6499C97.0678 99.5109 94.1456 101.264 90.9402 102.905C89.9315 103.421 88.8948 103.927 87.8291 104.421C87.7153 104.154 87.5926 103.882 87.4617 103.604C87.2586 103.174 87.0357 102.731 86.7954 102.28C86.2494 101.254 85.6136 100.181 84.9167 99.0971C83.716 97.2301 82.3341 95.3317 80.9178 93.5869ZM59.4011 95.6764L75.5965 91.1293L78.1808 110.017L78.178 110.018C77.3588 110.272 76.5396 110.526 75.7199 110.78C74.8783 111.041 74.0363 111.302 73.1935 111.563C68.6433 112.972 64.0684 114.38 59.4011 115.789L59.401 157.762C59.401 167.73 57.6781 173.327 52.1648 176.65C46.8238 180.148 39.243 181.022 27.8717 181.022C27.7572 179.162 27.3952 176.934 26.868 174.571C25.8091 169.825 24.0838 164.53 22.3584 160.56C28.5609 160.91 34.5911 160.91 36.6586 160.735C36.7886 160.735 36.9131 160.732 37.0323 160.726C38.81 160.641 39.4153 159.892 39.4153 157.762L39.4153 121.385L23.2199 126.107L18.7403 106.17C24.5982 104.771 31.6622 103.022 39.4153 101.098L39.4153 69.9678L21.497 69.9678L21.497 50.73L39.4153 50.73L39.4154 17.6761L59.4011 17.6761L59.4011 50.73L78.3532 50.73L78.3532 69.9678L59.4011 69.9678L59.4011 95.6764ZM73.0031 12.0888L189.817 12.0888L189.817 25.8958L176.215 25.8958C189.817 25.8958 189.817 25.8955 189.817 25.8958L189.816 26.1646C189.816 26.3292 189.815 26.5639 189.814 26.8526C189.811 27.4283 189.805 28.2261 189.794 29.1137C189.773 30.7205 189.731 32.9659 189.626 34.6721C188.855 53.3436 188.064 67.1407 186.822 77.064C186.198 82.0521 185.407 86.5153 184.291 90.3558C183.982 91.4168 183.63 92.5005 183.218 93.5868L187.06 93.5868L187.06 194.129L139.181 194.129L139.181 187.484L120.038 187.484L120.038 194.829L73.1934 194.829L73.1934 125.995C73.13 126.015 73.0665 126.034 73.003 126.054L73.003 157.762C73.003 163.288 72.5666 169.134 70.6012 174.505C68.4503 180.384 64.6976 185.088 59.3278 188.389C50.2568 194.224 38.8958 194.829 27.8717 194.829L15.0934 194.829L14.2963 181.883C14.087 178.484 12.1257 171.222 9.91376 166.133L0.956929 145.525L23.1129 146.774C24.0209 146.826 24.926 146.869 25.8133 146.904L25.8133 139.716L13.1556 143.407L2.47507 95.8705L15.625 92.7298C18.701 91.9951 22.1199 91.1613 25.8134 90.2521L25.8134 83.7748L7.89508 83.7748L7.89511 36.9231L25.8134 36.9231L25.8134 3.86911L73.0031 3.86907L73.0031 12.0888ZM25.8133 157.731C25.8132 157.745 25.8133 157.755 25.8133 157.759L25.8133 157.762L25.8133 157.731ZM86.7954 181.022L106.437 181.022L106.437 173.677L152.783 173.677L152.783 180.322L173.458 180.322L173.458 107.394L86.7954 107.394L86.7954 181.022ZM136.512 67.3644C137.346 64.4689 138.051 61.5396 138.654 58.5908L141.13 58.5908C140.859 62.2812 140.573 65.2296 140.263 67.5734C139.107 67.5227 137.846 67.4545 136.512 67.3644ZM139.339 72.3948C139.338 72.3929 139.351 72.3525 139.382 72.2796C139.355 72.3604 139.34 72.3968 139.339 72.3948ZM139.181 141.331L139.181 139.739L120.039 139.739L120.039 141.331L139.181 141.331ZM220.073 62.2172L217.816 24.595L233.971 26.5242C246.23 27.9881 257.349 28.8008 267.614 29.0919L262.429 13.7397L315.533 7.70552L317.355 21.0232C317.56 22.518 317.774 24.0012 317.999 25.4728C324.419 24.1777 330.644 22.5614 336.868 20.5871L352.186 15.7281L357.334 53.2911L361.321 52.2175L369.34 100.246L357.28 103.44C354.417 104.198 351.395 104.932 348.228 105.629C349.322 106.953 350.615 108.302 352.332 109.948L360.657 117.928L347.138 138.625L344.606 185.251L333.919 187.11C320.976 189.362 304.516 190.632 289.754 190.632C271.613 190.632 254.807 187.991 242.054 180.483C228.269 172.367 220.263 159.123 219.989 141.81C219.625 129.179 223.35 119.165 226.944 111.217L217.623 110.653L214.763 61.7108L220.073 62.2172ZM233.267 97.7619C233.276 97.7624 233.284 97.7629 233.293 97.7634C258.484 99.1722 285.002 99.1238 305.433 97.7749C305.977 98.9484 306.541 100.129 307.124 101.315C309.495 106.137 312.177 111.05 315.081 115.963C311.636 115.614 306.353 115.108 301.071 114.603C300.21 114.521 299.349 114.439 298.497 114.357C296.731 114.188 295 114.022 293.373 113.865C293.373 113.865 293.373 113.865 293.373 113.865L293.373 113.866L291.65 130.479C304.227 131.878 322.834 134.152 332.483 136.075L342.993 119.986C339.891 117.013 337.479 114.389 335.239 111.066C334.653 110.206 334.072 109.314 333.496 108.396C331.03 104.461 328.655 100.039 326.28 95.5013C331.266 94.8265 336.012 94.0296 340.479 93.1498C345.272 92.2057 349.744 91.1662 353.847 90.0798L350.401 69.4429C349.757 69.6164 349.102 69.794 348.434 69.9747C345.029 70.8975 341.315 71.904 337.179 72.8808C331.506 74.2205 325.041 75.5042 317.493 76.4385C317.143 75.4895 316.792 74.5606 316.448 73.6519C316.403 73.5312 316.357 73.4109 316.312 73.291C315.691 71.6505 315.095 70.0763 314.565 68.5685C313.703 65.9463 312.842 63.1494 311.981 60.3524L311.98 60.3487C316.605 59.7085 321.145 58.9526 325.541 58.1045C331.953 56.8674 338.06 55.4342 343.682 53.8778L340.925 33.7656C336.534 35.1585 332.143 36.3849 327.698 37.456C320.98 39.0747 314.138 40.3386 306.984 41.2859C305.778 35.3396 304.744 29.2186 303.882 22.9226L280.795 25.5459C281.209 26.7708 281.609 27.9747 281.998 29.1618C283.101 32.5276 284.115 35.7583 285.103 38.9497C285.508 40.2575 285.908 41.5587 286.309 42.8599C281.725 43.0116 276.998 43.0609 272.097 42.9953C263.953 42.8861 255.329 42.4591 246.094 41.6562C241.669 41.2715 237.103 40.8004 232.382 40.2366L233.588 60.3488C255.296 62.4474 275.454 62.7972 291.65 61.9227C291.971 62.8467 292.292 63.8044 292.624 64.8064C292.826 65.4167 293.032 66.0435 293.244 66.689C293.804 68.394 294.407 70.2302 295.096 72.2412C295.276 72.7452 295.457 73.2613 295.64 73.7862C296.158 75.2647 296.7 76.8135 297.335 78.3623C292.791 78.6532 288.013 78.8651 283.025 78.9862C270.82 79.2827 257.356 79.036 242.971 78.0743C238.493 77.775 233.926 77.4063 229.28 76.9632L230.486 97.6C231.411 97.656 232.338 97.71 233.267 97.7619ZM240.996 113.34C237.033 121.735 233.243 130.304 233.588 141.497C233.932 166.506 255.296 176.825 289.754 176.825C303.882 176.825 319.561 175.6 331.621 173.502L332.827 151.291C328.534 152.15 323.944 152.88 319.087 153.466C310.103 154.549 300.206 155.138 289.582 155.138C266.84 155.138 254.779 149.892 254.779 136.95C254.779 134.605 255.114 132.397 255.701 130.292C256.995 125.647 259.514 121.509 262.36 117.537L240.996 113.34ZM279.338 117.316L276.931 140.519C273.539 139.996 271.187 139.274 269.663 138.512C268.926 138.143 268.579 137.86 268.444 137.731C268.416 137.606 268.381 137.361 268.381 136.95C268.381 133.966 269.643 130.847 273.361 125.658L279.338 117.316ZM268.372 137.654C268.373 137.655 268.38 137.662 268.391 137.677C268.377 137.662 268.372 137.654 268.372 137.654ZM268.459 137.792C268.473 137.821 268.478 137.838 268.477 137.84C268.476 137.842 268.469 137.827 268.459 137.792ZM438.523 0.507505L461.366 19.4791L461.366 3.8688L551.456 3.86874L551.456 26.6043L571.959 26.6042L571.959 72.9313L566.618 72.9313L566.617 193.08L519.945 193.08L519.945 185.56L492.877 185.56L492.877 193.954L447.238 193.954L447.238 185.423C443.752 187.911 439.898 189.594 436.055 190.569L435.973 190.59L435.891 190.61C427.509 192.625 418.961 192.735 410.629 192.367L397.618 191.793L397.618 178.573C397.618 174.328 396.338 169.296 394.177 165.371L381.654 142.623L398.524 144.113C395.789 140.458 392.259 136.501 389.55 134.34L374.684 122.484L390.484 111.945C395.078 108.88 400.131 104.454 404.947 99.3669L398.695 88.7887C397.188 86.2386 392.397 80.9036 388.688 77.7414L374.796 65.8965L389.892 55.6812C393.178 53.4569 396.464 50.9622 399.722 48.2314C397.783 46.1832 395.653 44.1285 393.342 42.0917L380.699 30.9462L416.905 3.05009L425.208 9.99089C426.853 11.3658 428.41 12.7494 429.89 14.1362C430.018 13.9353 430.146 13.734 430.274 13.5325L438.523 0.507505ZM433.892 32.3406C433.023 33.4714 432.128 34.5898 431.206 35.6893C428.411 32.2614 425.38 28.8335 421.9 25.4596C420.232 23.8417 418.46 22.2361 416.561 20.6489L402.261 31.6669C405.861 34.8403 409.148 38.1195 412.066 41.4463C414.454 44.1697 416.595 46.9251 418.456 49.6804C415.232 52.8692 411.929 55.8969 408.565 58.7249C404.918 61.7908 401.201 64.622 397.437 67.1693C400.413 69.7069 404.211 73.5805 407.128 77.1746C407.715 77.8987 408.267 78.6115 408.769 79.2998C409.381 80.1394 409.92 80.9425 410.358 81.6851C412.331 80.3303 414.304 78.9161 416.264 77.449C417.973 76.1696 419.672 74.85 421.352 73.4946C423.466 71.7896 425.55 70.028 427.588 68.2186C429.3 72.8545 430.54 77.8504 431.405 83.0075C431.584 84.076 431.747 85.1515 431.895 86.2321C426.181 96.2287 417.635 106.661 408.861 114.762C405.202 118.142 401.503 121.116 397.953 123.483C399.585 124.784 401.295 126.405 402.97 128.171C404.583 129.869 406.163 131.701 407.611 133.51C409.108 135.38 410.463 137.226 411.564 138.874C414.123 136.709 416.724 134.283 419.331 131.656C420.083 130.898 420.836 130.123 421.587 129.333C425.601 125.118 429.6 120.469 433.445 115.613C433.373 123.694 433.088 131.281 432.526 137.701C431.75 146.564 430.447 153.201 428.449 155.838C427.071 157.762 425.52 158.461 423.28 158.811C422.655 158.874 421.951 158.932 421.169 158.98C418.227 159.16 414.189 159.199 409.167 158.875C408.935 158.86 408.701 158.844 408.465 158.827C407.683 158.773 406.879 158.709 406.051 158.636C408.395 162.894 410.032 167.869 410.773 172.791C411.067 174.743 411.22 176.686 411.22 178.573C415.323 178.754 419.196 178.795 422.885 178.573C423.536 178.534 424.182 178.487 424.822 178.431C427.559 178.191 430.197 177.789 432.756 177.174C436.891 176.125 440.682 173.851 443.266 170.354C444.813 168.226 446.126 165.59 447.238 162.543C451.7 150.315 452.914 131.471 452.914 112.291C452.914 102.704 452.58 93.3071 451.323 84.1335C450.807 80.3608 450.134 76.626 449.265 72.9314C449.06 72.0608 448.844 71.1925 448.617 70.3265C447.626 66.5484 446.417 62.8135 444.945 59.1244C444.173 57.1879 443.328 55.264 442.405 53.3531C445.969 49.1517 449.379 44.8724 452.483 40.4113C453.341 39.1789 454.175 37.9325 454.982 36.6701C455.631 35.6544 456.264 34.6283 456.877 33.5907L441.716 20.9987C441.016 22.1039 440.298 23.218 439.561 24.3349C437.793 27.0147 435.912 29.711 433.892 32.3406ZM454.982 40.4113L454.982 59.1244L474.968 59.1244L474.968 78.7119L494.609 78.7119L494.609 59.1244L518.04 59.1244L518.04 78.7119L537.854 78.7119L537.854 59.1243L558.357 59.1243L558.357 40.4113L537.854 40.4113L537.854 17.6757L518.04 17.6758L518.04 40.4113L494.609 40.4113L494.609 17.6758L474.968 17.6758L474.968 40.4113L454.982 40.4113ZM460.84 84.1335L460.84 180.147L479.275 180.147L479.275 171.753L533.547 171.753L533.547 179.273L553.016 179.273L553.016 84.1334L460.84 84.1335ZM152.783 125.932L106.437 125.932L106.437 155.138L152.783 155.138L152.783 125.932ZM496.849 102.322L479.275 102.322L479.275 118.936L496.849 118.936L496.849 102.322ZM533.547 118.936L533.547 102.322L515.284 102.322L515.284 118.936L533.547 118.936ZM515.284 153.739L533.547 153.739L533.547 136.6L515.284 136.6L515.284 153.739ZM479.275 136.6L479.275 153.739L496.849 153.739L496.849 136.6L479.275 136.6Z" fill="black"/>
</svg>
